<?xml version="1.0" encoding="UTF-8"?>
<svg xmlns="http://www.w3.org/2000/svg" xmlns:xlink="http://www.w3.org/1999/xlink" id="Layer_1" data-name="Layer 1" viewBox="0 0 129.19 133.88">
   <defs>
      <style>.cls-1{fill:url(#linear-gradient);}.cls-2{fill:#4e4f51;}</style>
      <linearGradient id="linear-gradient" x1="142.87" y1="354.94" x2="142.87" y2="221.06" gradientUnits="userSpaceOnUse">
         <stop offset="0" stop-color="#007a3b" />
         <stop offset="1" stop-color="#8bc53f" />
      </linearGradient>
   </defs>
   <title>Logo Kaizen Farms (color)</title>
   <path class="cls-1" d="M207.21,290.18H207V290a67.28,67.28,0,0,0-8.71,0V240.48c0-7.12-2-12-5.88-15.17-3.7-3.07-8.72-4.25-15-4.25H109.41c-6.29,0-11.32,1.18-15,4.25-3.86,3.21-5.88,8.05-5.88,15.17v49.66a69.49,69.49,0,0,0-9.84-.12v.17h-.17c0,.2-5.64,69.21,64.35,64.53C212.86,359.39,207.23,290.38,207.21,290.18Zm-64.35,46.33a59.68,59.68,0,0,0-3.56-13.81,56.1,56.1,0,0,1,18.47-26.94c7.41-5.82,17.49-10.57,31.17-12.49v7.9C171.58,294.24,147.37,304.32,142.87,336.51Zm-44.94-72a89.44,89.44,0,0,1,21,5.42,64.56,64.56,0,0,1,16.81,9.8,65.68,65.68,0,0,0-5.39,6.13,73.84,73.84,0,0,0-13.62-8,91.18,91.18,0,0,0-18.8-6.09Zm55.91,2.18a73.07,73.07,0,0,0-10.19,6.23l-.75.57a70.27,70.27,0,0,0-11.1-7.74V251.58l11-7.13,11,7.13Zm-4.64,13.79c9-6.64,21.8-12.07,39.73-13.91v7.25c-16.22,2.05-28.18,7.65-37,14.57A64.22,64.22,0,0,0,133.42,312a46,46,0,0,0-4.12-4.9A56.14,56.14,0,0,1,149.21,280.48Zm-48.81-48c1.78-1.48,4.85-2.05,9-2.05h68.05c4.16,0,7.23.57,9,2.05,1.62,1.34,2.47,3.87,2.47,8v16.66a105.27,105.27,0,0,0-25.68,5.49V246.52l-2.15-1.39-18.28-11.84-18.28,11.84-2.16,1.39v14.7A99.78,99.78,0,0,0,97.93,255V240.48C97.93,236.37,98.78,233.84,100.39,232.5Zm-2.46,48.84a80.3,80.3,0,0,1,14.9,5,64.07,64.07,0,0,1,12.32,7.32,65.29,65.29,0,0,0-3.46,7.08,63.92,63.92,0,0,0-23.76-9.37ZM88,299.51c14.1,1.14,40.82,7.46,45.45,38.68l-20.4-21.69c-5.73-6.09-12.12-.06-6.43,6L127.82,345C95.65,340.8,89.19,313.72,88,299.51ZM157.65,345l21.19-22.52c5.69-6.05-.7-12.09-6.43-6l-20.11,21.38c4.76-31,31.36-37.24,45.41-38.37C196.54,313.76,190.05,341,157.65,345Z" transform="translate(-78.41 -221.06)" />
</svg>