<?xml version="1.0" encoding="UTF-8"?>
<svg xmlns="http://www.w3.org/2000/svg" xmlns:xlink="http://www.w3.org/1999/xlink" id="Layer_1" data-name="Layer 1" viewBox="0 0 419.19 133.88">
   <defs>
      <style>.cls-1{fill:url(#linear-gradient);}.cls-2{fill:#fff;}</style>
      <linearGradient id="linear-gradient" x1="142.87" y1="354.94" x2="142.87" y2="221.06" gradientUnits="userSpaceOnUse">
         <stop offset="0" stop-color="#007a3b" />
         <stop offset="1" stop-color="#8bc53f" />
      </linearGradient>
   </defs>
   <path class="cls-1" d="M207.21,290.18H207V290a67.28,67.28,0,0,0-8.71,0V240.48c0-7.12-2-12-5.88-15.17-3.7-3.07-8.72-4.25-15-4.25H109.41c-6.29,0-11.32,1.18-15,4.25-3.86,3.21-5.88,8.05-5.88,15.17v49.66a69.49,69.49,0,0,0-9.84-.12v.17h-.17c0,.2-5.64,69.21,64.35,64.53C212.86,359.39,207.23,290.38,207.21,290.18Zm-64.35,46.33a59.68,59.68,0,0,0-3.56-13.81,56.1,56.1,0,0,1,18.47-26.94c7.41-5.82,17.49-10.57,31.17-12.49v7.9C171.58,294.24,147.37,304.32,142.87,336.51Zm-44.94-72a89.44,89.44,0,0,1,21,5.42,64.56,64.56,0,0,1,16.81,9.8,65.68,65.68,0,0,0-5.39,6.13,73.84,73.84,0,0,0-13.62-8,91.18,91.18,0,0,0-18.8-6.09Zm55.91,2.18a73.07,73.07,0,0,0-10.19,6.23l-.75.57a70.27,70.27,0,0,0-11.1-7.74V251.58l11-7.13,11,7.13Zm-4.64,13.79c9-6.64,21.8-12.07,39.73-13.91v7.25c-16.22,2.05-28.18,7.65-37,14.57A64.22,64.22,0,0,0,133.42,312a46,46,0,0,0-4.12-4.9A56.14,56.14,0,0,1,149.21,280.48Zm-48.81-48c1.78-1.48,4.85-2.05,9-2.05h68.05c4.16,0,7.23.57,9,2.05,1.62,1.34,2.47,3.87,2.47,8v16.66a105.27,105.27,0,0,0-25.68,5.49V246.52l-2.15-1.39-18.28-11.84-18.28,11.84-2.16,1.39v14.7A99.78,99.78,0,0,0,97.93,255V240.48C97.93,236.37,98.78,233.84,100.39,232.5Zm-2.46,48.84a80.3,80.3,0,0,1,14.9,5,64.07,64.07,0,0,1,12.32,7.32,65.29,65.29,0,0,0-3.46,7.08,63.92,63.92,0,0,0-23.76-9.37ZM88,299.51c14.1,1.14,40.82,7.46,45.45,38.68l-20.4-21.69c-5.73-6.09-12.12-.06-6.43,6L127.82,345C95.65,340.8,89.19,313.72,88,299.51ZM157.65,345l21.19-22.52c5.69-6.05-.7-12.09-6.43-6l-20.11,21.38c4.76-31,31.36-37.24,45.41-38.37C196.54,313.76,190.05,341,157.65,345Z" transform="translate(-78.41 -221.06)" />
   <path class="cls-2" d="M243,247.24l24.54-23a4,4,0,0,1,1.52-1,4.71,4.71,0,0,1,1.7-.27,4.15,4.15,0,0,1,1.67.41,5.32,5.32,0,0,1,1.49,1.06,4.14,4.14,0,0,1,1,1.47,4.79,4.79,0,0,1,.32,1.7,4.1,4.1,0,0,1-.36,1.68,5,5,0,0,1-1,1.49l-17,15.94,18.06,27.16a4.79,4.79,0,0,1,.72,1.7,4.15,4.15,0,0,1,0,1.72,4.6,4.6,0,0,1-.68,1.58,4.34,4.34,0,0,1-1.27,1.25,4.09,4.09,0,0,1-1.63.7,4.72,4.72,0,0,1-1.72,0,4.25,4.25,0,0,1-1.61-.66,4.32,4.32,0,0,1-1.24-1.27L250,252.94l-7,6.61v16.89a4.22,4.22,0,0,1-1.31,3.17,4.45,4.45,0,0,1-3.21,1.27,4.37,4.37,0,0,1-3.19-1.27,4.26,4.26,0,0,1-1.29-3.17V227.37a4.26,4.26,0,0,1,1.29-3.17,4.38,4.38,0,0,1,3.19-1.27,4.45,4.45,0,0,1,3.21,1.27,4.23,4.23,0,0,1,1.31,3.17Z" transform="translate(-78.41 -221.06)" />
   <path class="cls-2" d="M316.05,264.76h-23l-5.57,13.4a4.15,4.15,0,0,1-1,1.52,4.28,4.28,0,0,1-1.47.91,4.72,4.72,0,0,1-1.74.27,5.23,5.23,0,0,1-1.83-.38,3.93,3.93,0,0,1-2.31-2.47,4.77,4.77,0,0,1,.23-3.46l21.23-48.85a4.73,4.73,0,0,1,1.65-2,4.28,4.28,0,0,1,2.47-.72,4.45,4.45,0,0,1,2.42.7,4.22,4.22,0,0,1,1.65,2l21,48.9A4.78,4.78,0,0,1,330,278a3.94,3.94,0,0,1-2.26,2.47,4.39,4.39,0,0,1-3.49.14,4.83,4.83,0,0,1-1.49-.93,4.61,4.61,0,0,1-1.09-1.47Zm-19.2-9h15.39l-7.74-18.43Z" transform="translate(-78.41 -221.06)" />
   <path class="cls-2" d="M346.11,276.44a4.22,4.22,0,0,1-1.31,3.17,4.45,4.45,0,0,1-3.21,1.27,4.37,4.37,0,0,1-3.19-1.27,4.26,4.26,0,0,1-1.29-3.17V227.37a4.26,4.26,0,0,1,1.29-3.17,4.38,4.38,0,0,1,3.19-1.27,4.45,4.45,0,0,1,3.21,1.27,4.23,4.23,0,0,1,1.31,3.17Z" transform="translate(-78.41 -221.06)" />
   <path class="cls-2" d="M358.88,280.88a4.36,4.36,0,0,1-1.77-.18,4.12,4.12,0,0,1-1.58-1,4.64,4.64,0,0,1-1.56-3.06,4.7,4.7,0,0,1,.18-1.7,4.13,4.13,0,0,1,.88-1.58l34.41-41.47H359.15a4.41,4.41,0,0,1-4.48-4.48,4.29,4.29,0,0,1,.36-1.77,4.49,4.49,0,0,1,1-1.43,4.9,4.9,0,0,1,1.47-1,4.46,4.46,0,0,1,1.79-.36h39.66a4.92,4.92,0,0,1,2.44.82l.59.41a4.84,4.84,0,0,1,1.06,1.43,4.59,4.59,0,0,1,.45,1.65,4.09,4.09,0,0,1-.23,1.7,5.21,5.21,0,0,1-.88,1.56L368,271.87h31.6a4.23,4.23,0,0,1,3.17,1.31,4.46,4.46,0,0,1,1.27,3.21,4.38,4.38,0,0,1-1.27,3.19,4.26,4.26,0,0,1-3.17,1.29Z" transform="translate(-78.41 -221.06)" />
   <path class="cls-2" d="M416.06,280.88a4.41,4.41,0,0,1-3-1.38,4.34,4.34,0,0,1-1.18-3.1V227.46a4.55,4.55,0,0,1,.34-1.77,4.38,4.38,0,0,1,1-1.43,4.61,4.61,0,0,1,1.45-1,4.45,4.45,0,0,1,1.79-.36H440.6a4.15,4.15,0,0,1,1.74.36,4.79,4.79,0,0,1,1.4,1,4.37,4.37,0,0,1,1,1.43,4.54,4.54,0,0,1,.34,1.77,4.38,4.38,0,0,1-1.27,3.19,4.26,4.26,0,0,1-3.17,1.29H420.9V247.6h14.22a4,4,0,0,1,1.77.29,4.37,4.37,0,0,1,2.38,2.38,4.55,4.55,0,0,1,.34,1.77,4.12,4.12,0,0,1-1.29,3.12,4.47,4.47,0,0,1-3.19,1.22H420.9v15.53H440.6a4.23,4.23,0,0,1,3.17,1.31,4.45,4.45,0,0,1,1.27,3.21,4.54,4.54,0,0,1-.34,1.77,4.37,4.37,0,0,1-1,1.43,4.45,4.45,0,0,1-1.4,1,3.91,3.91,0,0,1-1.74.29Z" transform="translate(-78.41 -221.06)" />
   <path class="cls-2" d="M462.19,240.95v35.49a4.22,4.22,0,0,1-1.31,3.17,4.45,4.45,0,0,1-3.21,1.27,4.37,4.37,0,0,1-3.19-1.27,4.26,4.26,0,0,1-1.29-3.17V227.5a4.26,4.26,0,0,1,1.29-3.17,4.38,4.38,0,0,1,3.19-1.27h0a1.4,1.4,0,0,1,.41,0,.79.79,0,0,1,.32,0l.63.14a4.88,4.88,0,0,1,1.31.68l.5.41a7.37,7.37,0,0,1,.82,1.09L488.59,263V227.37a4.19,4.19,0,0,1,1.34-3.17,4.77,4.77,0,0,1,5-.93,4.12,4.12,0,0,1,1.4,1,4.65,4.65,0,0,1,.93,1.4,4.39,4.39,0,0,1,.34,1.74v49.08a4.24,4.24,0,0,1-.91,2.69,4.44,4.44,0,0,1-2.26,1.56,3.21,3.21,0,0,1-.82.18h-.5a4.44,4.44,0,0,1-2.81-1l-.45-.36a1.52,1.52,0,0,1-.36-.41Z" transform="translate(-78.41 -221.06)" />
   <path class="cls-2" d="M262.49,294.73a4.14,4.14,0,0,1,1.74.36,4.8,4.8,0,0,1,1.4,1,4.38,4.38,0,0,1,1,1.43,4.55,4.55,0,0,1,.34,1.77,4.38,4.38,0,0,1-1.27,3.19,4.26,4.26,0,0,1-3.17,1.29H243v15.48h13.36a4.41,4.41,0,0,1,4.48,4.48,4,4,0,0,1-1.29,3.1,4.51,4.51,0,0,1-3.19,1.2H243v20.24a4.31,4.31,0,0,1-.36,1.77,4.42,4.42,0,0,1-1,1.4,4.69,4.69,0,0,1-5,.93,4.36,4.36,0,0,1-1.43-.95,4.45,4.45,0,0,1-1-1.4,4.39,4.39,0,0,1-.34-1.74V299.07a4.84,4.84,0,0,1,.25-1.49,4.06,4.06,0,0,1,.79-1.4,4.22,4.22,0,0,1,1.38-1,4.67,4.67,0,0,1,2.06-.41Z" transform="translate(-78.41 -221.06)" />
   <path class="cls-2" d="M297,336.56H274L268.47,350a4.15,4.15,0,0,1-1,1.52,4.27,4.27,0,0,1-1.47.9,4.71,4.71,0,0,1-1.74.27,5.24,5.24,0,0,1-1.83-.38,3.93,3.93,0,0,1-2.31-2.47,4.77,4.77,0,0,1,.23-3.46l21.23-48.85a4.73,4.73,0,0,1,1.65-2,4.28,4.28,0,0,1,2.47-.72,4.45,4.45,0,0,1,2.42.7,4.22,4.22,0,0,1,1.65,2l21,48.9a4.77,4.77,0,0,1,.23,3.46,3.94,3.94,0,0,1-2.26,2.47,4.39,4.39,0,0,1-3.49.13,4.84,4.84,0,0,1-1.49-.93,4.61,4.61,0,0,1-1.09-1.47Zm-19.2-9h15.39l-7.74-18.43Z" transform="translate(-78.41 -221.06)" />
   <path class="cls-2" d="M355.17,311.89a16.92,16.92,0,0,1-.84,5.34,16.36,16.36,0,0,1-2.38,4.62,17.4,17.4,0,0,1-3.64,3.64,17,17,0,0,1-4.59,2.42L354.44,346a4,4,0,0,1,.59,1.72,4.23,4.23,0,0,1-.18,1.74A4.79,4.79,0,0,1,354,351a4.13,4.13,0,0,1-1.38,1.11,4.37,4.37,0,0,1-1.68.54,4.19,4.19,0,0,1-1.67-.16,4.93,4.93,0,0,1-1.52-.77,4.12,4.12,0,0,1-1.15-1.34L334,328.91h-6.93v19.33a4.22,4.22,0,0,1-1.31,3.17,4.45,4.45,0,0,1-3.21,1.27,4.38,4.38,0,0,1-3.19-1.27,4.26,4.26,0,0,1-1.29-3.17V299.16a4.26,4.26,0,0,1,1.29-3.17,4.38,4.38,0,0,1,3.19-1.27h15.17a17.48,17.48,0,0,1,6.81,1.34,17.72,17.72,0,0,1,5.57,3.64,16.91,16.91,0,0,1,5.09,12.18Zm-28.11-8.24V319.9h10.68a8,8,0,0,0,3.26-.68,9,9,0,0,0,2.69-1.81,8.35,8.35,0,0,0,1.81-2.63,7.69,7.69,0,0,0,.66-3.12,7.42,7.42,0,0,0-.68-3.15,8.2,8.2,0,0,0-1.83-2.56,8.43,8.43,0,0,0-2.69-1.7,8.75,8.75,0,0,0-3.26-.61Z" transform="translate(-78.41 -221.06)" />
   <path class="cls-2" d="M373.41,316.28l-4.48,32.51a4.26,4.26,0,0,1-1.72,3,4.39,4.39,0,0,1-3.35.79,4.34,4.34,0,0,1-3-1.72,4.49,4.49,0,0,1-.86-3.35l6.75-48.53a5,5,0,0,1,2.94-3.71,4.36,4.36,0,0,1,3.37,0,4.43,4.43,0,0,1,2.47,2.4l15.89,38.84,15.8-38.84a4.44,4.44,0,0,1,2.42-2.4,4.36,4.36,0,0,1,3.37,0l.5.27a4.3,4.3,0,0,1,1.67,1.36,4.21,4.21,0,0,1,.82,2.08l6.29,48.67a4.27,4.27,0,0,1-.93,3.33,4.42,4.42,0,0,1-3,1.65,4.49,4.49,0,0,1-3.33-.86,4.16,4.16,0,0,1-1.7-3l-4.17-32.23L395.5,350a4.37,4.37,0,0,1-1.61,1.92,4.72,4.72,0,0,1-2.29.79,4.22,4.22,0,0,1-2.6-.57,4.47,4.47,0,0,1-1.83-2.15Z" transform="translate(-78.41 -221.06)" />
   <path class="cls-2" d="M438.74,325.67a23.2,23.2,0,0,1-6.13-3.37,15.22,15.22,0,0,1-4.1-4.82A13.44,13.44,0,0,1,427,311a14.62,14.62,0,0,1,1.58-6.79,17,17,0,0,1,4.23-5.3,19.32,19.32,0,0,1,6.07-3.42,21.38,21.38,0,0,1,7.13-1.2,25.42,25.42,0,0,1,5.25.54,22,22,0,0,1,4.84,1.61,18.33,18.33,0,0,1,4.12,2.65,14.33,14.33,0,0,1,3.08,3.67,2.93,2.93,0,0,1,.48,1.29,3.71,3.71,0,0,1-.09,1.29,4.5,4.5,0,0,1-.47,1.18,4.67,4.67,0,0,1-.72,1,3.68,3.68,0,0,1-1.11.75,4.37,4.37,0,0,1-1.4.36,5.06,5.06,0,0,1-1.56-.11,4,4,0,0,1-1.54-.72q-1.27-1.13-2.4-2a12.18,12.18,0,0,0-2.38-1.38,12.51,12.51,0,0,0-2.67-.82,17.66,17.66,0,0,0-3.28-.27,14.12,14.12,0,0,0-3.87.52,10.22,10.22,0,0,0-3.21,1.52,7.72,7.72,0,0,0-2.2,2.4,6.19,6.19,0,0,0-.82,3.17,5.15,5.15,0,0,0,1.06,3.35,8.35,8.35,0,0,0,2.85,2.2,20.61,20.61,0,0,0,4.16,1.47q2.38.59,5,1.18a56.93,56.93,0,0,1,6.23,2.08,21.27,21.27,0,0,1,5.43,3.12,14.82,14.82,0,0,1,3.83,4.6,13.56,13.56,0,0,1,1.45,6.5,16.23,16.23,0,0,1-1.56,7.11,17.27,17.27,0,0,1-4.3,5.64,20.52,20.52,0,0,1-6.43,3.74,22.69,22.69,0,0,1-7.9,1.36,23.58,23.58,0,0,1-6.5-.88,24.27,24.27,0,0,1-5.68-2.4,20.74,20.74,0,0,1-4.53-3.55,15.53,15.53,0,0,1-3-4.35,5.16,5.16,0,0,1-.59-2.06,4.74,4.74,0,0,1,.23-1.77,3.7,3.7,0,0,1,.84-1.38,5.57,5.57,0,0,1,1.29-1,3.71,3.71,0,0,1,3.15-.36,7.39,7.39,0,0,1,3,2.49,13.07,13.07,0,0,0,5,4.62,15.07,15.07,0,0,0,7.15,1.63,14.57,14.57,0,0,0,3.94-.54,11.51,11.51,0,0,0,3.49-1.61,8.61,8.61,0,0,0,2.49-2.63,6.7,6.7,0,0,0,1-3.55,5.77,5.77,0,0,0-1-3.44,7.87,7.87,0,0,0-2.51-2.24,15.31,15.31,0,0,0-3.46-1.43q-1.92-.54-3.83-1A45,45,0,0,1,438.74,325.67Z" transform="translate(-78.41 -221.06)" />
</svg>