<svg xmlns="http://www.w3.org/2000/svg" viewBox="0 0 566 432.38"><defs><style>.cls-1{fill:#80a44b;}.cls-2{fill:none;}</style></defs><g id="Layer_2" data-name="Layer 2"><g id="Layer_1-2" data-name="Layer 1"><path class="cls-1" d="M471.3,416.63c-5.05-14.11-10.75-28-14.58-42.57-5.26-20-2.22-40.53-4.44-60.72-1.08-9.86-.73-19.81-.31-29.76.84-19.93,3.44-39.68,5.18-59.52,1.62-18.45,5.23-36.58,9-54.61,2.25-10.9,1.65-20.92-3.69-29.91A125.91,125.91,0,0,1,452.29,118c-1.36-3.75-5.58-4.89-5.94-9.45-.64-8-4.93-14.17-11.47-19.07C427.5,83.95,422.29,76.25,417,68.92c-8.12-11.17-14-23.74-20.24-36-4-7.85-6.68-16.23-5.18-25.36.17-1-.5-2.22-.75-3.25-2.41-2.95-5.19-4.73-9.27-4.17a9.06,9.06,0,0,0-3.32,8.1c.61,5.29.73,10.57,2,15.85,5.31,21.63,18.36,38.59,32.69,54.7,7.59,8.53,13.67,17.29,12.2,31-12.07-.47-19.19,7.78-26.94,15.33-5,4.89-8.49,9.78-7,17.26.76,3.72.32,7.68.7,11.5,1.49,15,2.82,30.21.72,44.9-2.57,18-2.48,35.93-2.24,53.86.1,7-1.35,14.76,2.61,21.53-2.4,4.28-.37,7.88,1.77,11.46-1.86,4.25.69,7.77,1.91,11.51.75,7.18,0,14.7,4.67,21-.5,1.45-1.66,3-1.4,4.34,2.42,11.87,4.53,23.91,13,33.44,2.23,12,8.88,22,15.83,31.58,9.68,13.33,21.91,24.65,31.14,38.4,2.87,4.28,6.72,7.14,14.11,6.4C472.33,426.82,473.23,422,471.3,416.63Zm-18.2-33.86c-2.29.63-2.23-.83-2.44-2Zm-2.68-2.72-1.89-4.1C452.46,376.57,450.84,378.51,450.42,380.06Zm2-157.34a47.62,47.62,0,0,0-1.4,12.53A22.94,22.94,0,0,1,447.42,247c-2.23-1.17-3.52-3.64-6.26-4.23-3.2-.69-2.69-2.88-1.67-5.07,2.19.74,4.33,1.28,5.54-1.46.64-3.74-3.95-4.14-4.61-7.08,2.6-.72,4.46,2,6.86.74,0-3-3.15-4.22-4.08-7.21l5.2.26c.62-3.64-1-8.27,3.88-12.11C451.24,215.43,453.52,218.67,452.4,222.72Zm-24.9-3.48a7.19,7.19,0,0,1,6.7,3.09C431.08,223.21,429.12,221.69,427.5,219.24Zm3.45,9.86a5,5,0,0,1-5-3C428.7,226.54,430.31,227.09,430.95,229.1Zm-4.2-16.86c5.11-2.54,8.3.49,12.82,6Zm-7.08-27.18c5.64-1.59,8,0,10.29,3.53C425.91,189,424,186.28,419.67,185.06Zm18.11,23c-3.81-.86-3.9-.91-3.62-4.74C435.76,204.6,437.66,205.64,437.78,208.07Zm-.22-12.75c.26,0,.5.36.75.55-.06.21-.11.61-.17.61a1.48,1.48,0,0,1-.9-.18C436.47,195.64,436.61,195.23,437.56,195.32Zm12.91-33.68-9.33-5.9C447.52,155.06,451,155.74,450.47,161.65Zm-11.21-20.24a6.44,6.44,0,0,1,5.91,3.3C442.3,144.53,440.21,144.15,439.26,141.41ZM452,178.55c-4.67,1.64-7.56-1.54-10.42-4.75ZM441.4,164.74c2.58-1.86,3.77-1,3.79,2Zm9.8,8.36c-2.22-1.7-5.31-2.61-5.73-6l10.65,5.65c.19,3.89-1.26,5.15-3.54,5.65C454,176.25,453.13,174.57,451.2,173.1Zm-6.51,10.59c-2.6,1.31-3.63-1-5.06-2.11A4.54,4.54,0,0,1,444.69,183.69Zm.77,7.23c-2,.9-3.85,1.05-5.48-1.88ZM442.66,204c1.06-1.38,2.09-1.68,3.12-1.11.27.15.31,1.4,0,1.77C445,205.66,444,205.28,442.66,204Zm.38-7.44c5.69-.22,8.85,2,12,4.18C450.18,203.07,447.66,199.48,443,196.57Zm12.29-1.74-9.3-4c2.3-3.16,6.49-.59,9.11-2.8C457.08,189.89,456.43,191.95,455.32,194.83Zm-.17-7-4.66-2.9c1.7-2.71,3.88-2.63,6.63-2.32Zm-4.26-25.72,8.39,4.45C453.69,166.09,453.51,166,450.89,162.1Zm5.2-5.06,4.2,3C457.46,160.55,456.46,159.17,456.09,157ZM458.51,144c-5-.32-5.82-3.38-7.61-6.68C456,137.18,456.37,141.08,458.51,144Zm-2.83,12.5c-2.1-1.38-4.82-1.91-6.26-4.56C453,151.76,455.17,153,455.68,156.47Zm-14.9-48.94c-1.8.55-3,.07-3.52-1.84A3,3,0,0,1,440.78,107.54ZM449.11,127c-5.92-.23-8.84-2.79-11.9-4.3-2.35-3.88-.15-9.11-5-11.66C440.1,113.59,447.3,116.55,449.11,127ZM414.17,355.43c-3.28-12.75-6.61-25.49-11.49-37.75.14-7.34-.67-14.47-4.63-20.91,2-4.3-.77-7.72-2.1-11.4,2-4.13,1.19-8-1-11.8.46-1.48,1.47-3,1.29-4.42-2.09-16.83-.93-33.69-.86-50.55,0-6.92,1.58-13.64,1.91-20.55.83-17.2,1.25-34.3-1.56-51.36-1-6.33-.1-12.26,4.78-17.71,9.89-5.9,19.27-3,28.45,3.49-1.81,2-3-.18-4.29-.56-1.81-.53-3.36-1.94-5.84-1.47,1.26,6.09,8.4,6.38,10.83,11.13-4.93,0-8.11-4.45-13.59-5.2-1.28,2.73-.49,5.48.44,8.38a62.35,62.35,0,0,1,19.77,11.08c-6.22-1.78-12.58-1.13-18.9-2,7.19,5.15,16.25,6.08,23.51,10.88-6.58,3.17-12.76-3.63-19.77-.7,3,4.94,11.51,3.55,12,11.17l-12.73-5.26c-2.54.34-3.94,1.34-4,4.69,5.44,1.33,11.7,2,17.68,9.43-8.08-4.53-14.26-6.2-20.43-3.88,2.41,7.11,8.15,11.3,13.72,16L412.88,190c3.22,6.26,10.93,5.73,9.47,13.38-1,2-5.7-2.83-7.09,2,2.7,3.46,7,4.85,10.91,6.87-4.53,3.33-8.57-1.18-13.29-1.15.45,4,5.36,3.57,6.22,6.71-1.87,3.17-5.22-1.09-7.51,1.81l7.11,5.25c-.89,4-4.13,1.2-6.64,3.26l19,10.1-.65,1.63-16-4.1c2.48,4.61,7.12,5,9.81,8.29-3.07,0-5.67-.11-8.25,0-.48,0-.89,1.1-1.6,2,5,3,10.51,4.35,16.07,5.43,5.91,1.15,7.52,9.15,14.75,9,.28-8.34-7.28-9.91-12.07-14,5.08-1.41,9.41,4.63,14.21.78,2.39,3.85,1.75,8.13.52,11.89-1.13,3.47-.54,6.78-.44,10.69-7.9-1.21-9.42-9.44-15.89-12.43-6.29-2.9-12.89.23-18.22-4.11,3.44,5,3.44,5,10.14,6.65,8.46,2.14,8.65,2.31,12.72,11.69-5.23-2.24-9.89-4.67-14.84-6.2-3.15-1-6.72-.59-10.64-.85.85,5,5.32,4.87,8,6.82-1.36,5.33-6.35-2-8.45,2.62,2.91,3.65,7.71,4.34,11.32,6.83-1.55,2.86-4.45,2.09-7.67,2.49l5,5.26c-.91,2.94-3.2,1.89-5.31,2.35,1,3.2,5.87,3.08,6,6.79-1.34,3.48-5.24-.56-7.42,3.05l22.33,10.56,2.9-3.32c2.76,3.86,9.42,3,9.39,9.68l-12.28-6.36c-1.45,1.64-3.79,2.39-5.2,1.34-6.1-4.56-13.9-2.38-21-6.95,1.47,9.71,15.07,6.21,13.95,16.3-2.13,2.14-5.76-2.43-8.22,1.78,5,4,10.84,6.44,16.52,9.22-4.46,3.18-11.49-.4-16,6,6.76,2.35,14.47,1.15,19.07,8.9-4.81.7-10.81-5-12.8,3.56,5.87,0,10.93,3.09,16.85,1.89,2.59-.52,4.91,1.23,7,2.91a38.69,38.69,0,0,1-17.41-.28c-.8,6.77,5.38,6.08,7.7,9.2-.86,1.53-3.57-1.17-4,.89-2.08,5.31,6.18,4.82,4.51,8.88-2,4.86,4.17,4.89,4,8.61l-3.77,4.68C426.92,378.38,420.84,366.71,414.17,355.43Zm31.82-.87.87,1.6-1.83.13Zm0-.71c-1.29-3.34-2.71-6.67-7.44-9.54,4.68.13,6.9,1.44,8.84,3.63C448.1,350.15,446.37,351.85,446,353.85Zm1.13-15.32-.86,2.15-15-7.53C437.57,332.19,442.06,336.08,447.09,338.53ZM427.7,317.25c2.07-.43,3.33.59,4.67,3C429.36,321,428.32,319.57,427.7,317.25Zm19.16.81c1.22,1.85.45,3.48-1,5.52-3.37.37-6.07-1.37-8.75-3.94C440.46,318.84,444.09,320.67,446.87,318.06Zm-2,11c-.09.66,0,1.76-.31,1.89-1.1.45-2-.1-2.68-1.45Zm-5.72-51.89c2.77-2.8,4.77-.38,8.68.52C443.46,280.3,441.2,279.94,439.13,277.16Zm-3.1,5.6c5,.46,7.45,1.84,9.74,4.63C441.38,289.23,438.77,287.9,436,282.76Zm6.22,15.33a2.8,2.8,0,0,1-3.57-1.86C440.47,295.72,441.51,296.58,442.25,298.09Zm-16.68-5.84c2.83.15,5.09,1.25,7.5,4A7.84,7.84,0,0,1,425.57,292.25Zm2.3,9.22-1.9-.87C427.11,299.82,427.6,300.37,427.87,301.47ZM432.22,288c-5.33.32-7.32-4.09-10.29-7.07C426.87,281.42,427,281.53,432.22,288Zm-13.13-16.62c4.83-1.13,8.3,1.07,10.7,5.68Zm16.8,117.18c4.81.9,9.2,2.33,9.94,9.33C440.92,395.83,438.36,392.25,435.89,388.6Zm6.1-24.35c3,.82,7.44-1.52,8.68,4.21C445.8,370.56,444.28,366.57,442,364.25Zm5.89,39.82c1.75-.67,3.38-1,5,1.75C450,406.57,448.77,405.76,447.88,404.07Zm3.54-14c2.5.18,3.66.65,3.74,2.41C453.4,393.12,452.47,392.2,451.41,390.11Z"/><path class="cls-1" d="M380.91,187.38c.55.52,1.49,1,1.58,1.57,3.5,21.25,8.7,42.46,2.57,64.09-1.5,5.3-1.39,10.64-1.24,16.08.4,14.65-1.76,29.1-4.74,43.38-1.72,8.2-1.17,16.76-4.62,24.72-2.52,5.82-4.15,12-7.48,17.52l.18.18-.7-8.8c-4.73,3.06-1.3,6.14-1.8,8.81l.19-.2c-5.5-.19-6.64,6.76-11.76,7.18l-.55-.65.75.44,0,2.48c-2.46,1.37-5.9,1.24-7,4.64l-.85.76.64-1,7.22.07c-2.4,5.74-9.7,5.85-12.57,11-.28.51,0,1.31,0,1.95,2.49,2.22,4.79-2.69,7.31-.23-1.77,6.27-1.77,6.27-6.53,8.44l-1.08-1.45-1.17,1.42-.86.74.67-1,2.63,0c.49,9.75-6.25,15.17-12.52,20.87-10.88,1.11-10.88,1.11-16,7,14.33-2.07,25.4-6.84,32.12-18.47a39.55,39.55,0,0,1,7.6-9.54l.37.27c-3.38,14.52-11.89,25.55-24,33.71-3.63,2.45-8.1,4.4-13.15,2.52-7-2.62-13.75-1.08-19.93,2.78-6,3.74-12.57,3.38-19.14,3.18-4.35-.13-7.28-2.27-8.27-6.69q.53-.59,1.11-1.13c2.91-.66,5.56,5.19,8.63.35,2.62-.39,5.42.44,8.62-1.56-3.63-.94-6.43-1.85-8.44,1.78-2.59-1.66-2.18-3.71-.74-6,3.92-2.44,8.33-.55,12.47-1.27l.52.85-.72-.66c1.52-3.52,4.47-2.47,7.16-2.25l-.18-.16.18,7.08-.56.7.37-.89c6.62-.68,10.41-5.06,14.1-10.05,2.17-2.93,2.42-7.58,7-8.55l.73.91-.93-.71c-1-7.55,4.93-12.5,7.13-18.87a165,165,0,0,0,7.66-32.71c3.19-3.2,5.51-1.25,8.38,0l9.12-6.62-14.42,2.11c-1.61-11.26,5.4-21.61,2.45-33.56,11.63-.36,12.48-11.3,19.28-16.64-4.06-5.4-7.37-.38-10.69.14-1-1.67-.36-3,.65-4.74,4.45-1.69,10.74-1.34,12.31-8,1.15-.33,2.87.47,3.22-1.57-2.07-1.06-2.5.44-3,1.8l-7.09-.17.14.16c.74-3.82,6.41-2.92,6.79-7.09l.62-.57-.46.72-9.4-.22.18.22c-.14-3.32-4.8-3.69-4.69-7.18l-.18.18,7.12-.2c.28.61.41,1.49.88,1.77.79.47,1.8.54,2-1.1l-3-.49.21-2.45-.18.16c2-1.61,3-3.23,0-4.87l.1.12c-.48-3.63,4.59-3.72,4.51-7.09l.73-.54-.57.71-7.13-.2.13.22,12.57-13.35-3.34-.81.17.2c.49-3.61,5-5.13,5.19-9-4-1-6.38,3.77-10.15,2.06l4.69-7.16c.12-.66,2.3.16,1.05-1.48l-.86,1.67-7.08-.1c.16-3.94,4.37-3.63,6.18-5.88s4.42-3.93,3.28-7.26l-2.55-.79c-.57-3-5.85-2-5.09-6.09,1.56-1.43,3.39-1.26,5.22-1l.47.57-.58-.46q0-2.4,0-4.8c3.36.19,5.33-1.93,8.61-3.69-3.33-1.4-5.11-1.1-6.76-.07-1.45.9-1.47,2.49-1.65,4h-9.5c-.29-2.55,3.92-1.92,3.35-4.74-1.36-2.06-3.44-2.31-5.66-2.23l.07-2.45c4.83.53,8.22-1.53,11.08-6.46h-5.92l-.88-1,.33-4.28c1.16.06,2.51.61,3-1.26-1.54-.55-2.59-.36-2.9,1.41H346c3-3.92,8.62-5.48,10.37-10.91-3.29-.72-4.94,1.94-7.34,2.73-2.6.85-5,1.69-7.74,1.21,3.14-3.91,9.3-4.7,11.41-11.4L339,171.14c-.1-2.22-.23-4.27,2.57-5.27,3-1.07,4.89-3.18,4.35-6.7,1-.24,2.4.34,3.1-2.21l-2.91,2.43c-6.11-.24-8.19,5.74-13.19,8.12l6.3,3.45-1.34,4.26,3.65.32c4.18,3-3.79,5.33-.38,8.71l5.07-1.82c1,3.57-3,4.64-3.92,7.54l6.18,4.29c-1.43-.11-2.81-.09-3.74,1.22,1,1.39,2.38,1.22,3.8,1,1.79,3.9-4.95,4.4-3.86,8.38l6.22-1.45c-.2,2.88-1.1,5-4.56,5.16-2.76.11-3.8,2-3.77,5,1.56,1.43,3.67,1.74,5.9,1.7l-.19-.22c-.76,1.86-2.5,3.5-1.17,6.17l3.79.82c.65,3-4.2,3.16-3.05,7h5.48c-1.09,3.87-9.9,3.2-5.95,10.15,3-.53,4.64-4.25,8.14-3.1-1.34,4.53-6.88,5.54-8.76,9.9l6.41,2.89a10.08,10.08,0,0,0-6.52,7.77l-1.28,1.22c-3.31-3.34-3.84-7.62-3.25-11.86,1-7-.46-13.72-2-20.44C338,216.75,339,207.82,339,199a37,37,0,0,0-4.4-17.73c-3.81-7.07-6-14.86-9.15-22.21-2.11-4.89-8.5-7.38-7.34-13.77l4.8.12,0,0c1.1,3.51,4,4.18,7.13,4.62l-1.74,3.62a3.87,3.87,0,0,0,4,.94c.64,2-.83,4.46,1.41,6.11,3.42-1.87,7.94-2.32,9.1-7.47l-6.09-.7c0-2.12,2.67-3.49,1.61-5.89-1-1.27-2.46-1.23-3.9-1.12l8.59-9.36c-10.36-5-18.91-3.9-26.65,3.72l2,5.64c-3.71.79-6.48-1.41-9.69-2.66-21-8.22-37.58-4.91-54,11-4.56,4.41-6.78,10.08-8.72,16.62,6.65,14.14,9.64,30.06,15.39,45.07,2.3,6,.71,12.25,1,18.38l.23-.16c-3-1.64-2-5.56-5.11-8.17-3,1.48-4.85,6-9.14,5.88l.18.15c0-4.8,5.69-6.16,6.35-10.62.37-5.7.36-11.4-1.91-16.91-.92-2.23-2.64-2.52-4.55-2.82l.1.11c2-5.27-4.19-9.73.36-15.33l-7.38,1.33,0,0c5.85-7.66.92-14.18-3.17-19.76-5.74-7.82-13.59-13.55-23.7-14.82-3.61-.45-6.42-2.49-9.47-3.67-29.75,2.16-48.36,17.41-48.26,50-4.11-10.55-4.11-10.55,2.11-31.8-8.68-2.57-16.75-6.49-26.07-7.84-10.33-1.49-16.33,7.16-25.24,8.4,7.4-7,14.33-14.91,26-12.11,8.16-6.37,13.82-14.9,22.66-19.94,9.26-5.27,18.32-8.82,29.49-5.81,7,1.89,14.22,2.62,20.25,7.18,2,1.52,4.47.79,6.77.69l1.35,1c12.34-.31,16-2.39,15.52-8.84l-8.81,1.84-.85-1c2.14-6,8.33-5.81,13-8.24,2.27-6.38,1.39-12.95,1.25-19.34-.18-8,1.78-14.94,7.27-20.81-.22,4.19,2,9.3-.81,12.37-4.27,4.7-3.52,9.8-3.7,15.06-.51,14.61-1,29.21-13,40.12-.22.2-.12.73-.18,1.1,6.5,3.7,6.87-4.25,10.7-5.62l-.19-.17,1.39,3.79c6.28-5.26,11.24-10.65,12.59-18.74,1.26-7.57,3-15.06,4.27-22.63,3-18.2,7-36,19.82-50.3.34-.38.14-1.23.2-2l-3.38-.72c-.79-4.3,6-2.17,5.74-6.71-5.84-.27-10.74.18-12.5,6.68-4.36.28-6.86,2.44-7,7-1.26.35-3.29-.22-3.1,2,.09,1.08,1.08,1.71,2.49.88l.4-3.11h4.89L254,74.27c-3.64-1.08-1.77-5.3-4.6-6.47-1.57,2.42-.67,5.22-1.17,7.8l.18-.16c-3.5,1.32-3.24,6.37-7.2,7.24-.2-15.4,8.58-26.16,19.9-34.38,12.17-8.84,25.69-11.41,40.14-3.47,12.56,6.9,18.78,16.46,16.84,30.89-3.1,3.66-6.19,7-11.82,7.49-4.08-5.52-7.82-11.47-14.78-13.7-17,9.19-25,32.33-17.78,53.8,10.39-1.17,18.08,5.2,26.23,10.84s9.32,5.42,17.16-.41c8.87-6.6,26-5.85,34.28,1.59a95.5,95.5,0,0,1,20.22,26.37l.17-.13c-6.77.6-7.17-7-11.8-9.16L358.86,149,353,152.46c-.49-2.69.86-5.71-1.11-8.36-3.06,1.88-3.7,4.58-4.75,7.39l6.07.76c1,1.71-1.26,4.38,1.65,5.69l5.32-5.83-.1,7.19c-2.82,1.2-2.81,3.34-3,6.61,3.15-2.38,3-4.57,2.75-6.79,4.39,3.73,6.12,8.83,7.3,14.2-2.78,1.14-3.52,4.1-5.92,6.08l5.93.8,4.64,7.14c-1.55.39-3.87-.35-3.79,3.17,2.13-.35,3-1.67,3.63-3.34,3.64,4,1.9,9.84,4.86,14.06.14.2-2.41,13.71-2.55,14.08l-.75-1,1,.76q0,2.39,0,4.77l-.74.62.54-.82c5.33,3-.44,6.35.23,9.5-.16.67-2.5-.15-1.09,1.59L374,229l5.09,1.5c-6.43,3.25,0,9.3-5,12.72l-.55-.68.7.53,3.44,6.57c-5.23,6.56-1.39,16.19-7,23.17,4.7,3.5,2,8.81,3.45,12.86a18.56,18.56,0,0,1-7,6.38c-1.35-2.17-3-2.93-6.05-.2h6.22l-.1,2.46c-.91.84-2.55,1.35-1.45,3.18,1.47-.75.95-2.21,1.27-3.35,2.4,1,3.9-2.21,7.37-1-5.46,5.65-3.68,13.5-7.15,19.76l-1.81,1c1.75,1.06,1.33-.53,1.59-1.25a9.08,9.08,0,0,0,6.64-1.22c5.37-11.24,6.47-24.49,6.92-37.31,1-29,.52-58,.64-87ZM357.79,341c-1.11.34-2.55-.38-3.36,1,1.72,1.16,2.29-.43,3.17-1.26l2.67,0,.93,3.51c2.66-1.83,5.32-3.12,7.23-5.12S369.88,335,367,334q0-1.26,0-2.52c2.25-.83,4.34-1.84,4.63-4.63,2.78-1.53,1.79-3.05,0-4.58.43-2,3.31-3.61.59-6.36-3.49,3.2-8,5.31-9.91,10.53l4.85.33,0,4.91c-2.22-.59-3.66.42-4.69,2.28l-2.56,0c-.64-1.07-1.06-2.68-2.81-1.1l3,.87c.55,1,.85,2.29,2.35,2.39-.1,1.95.38,4.19-2.4,4.79C359.31,340,358.53,339.5,357.79,341Zm-11.71-198c1.43-.77,3.77-.89,2.6-3.62-3,0-2.14,2.25-2.4,3.83-.59.25-2.2-.46-1.21,1.28Zm14,163.13-.78-.91,1,.72c2.21,3.23,4.22,3.08,6.65-.07C364.06,304.23,362.2,306.88,360,306.08ZM353,326.85c.55-.39,1.09-.78,1.63-1.18l-1.64-1q0-2.38.07-4.76c1.2-.71,3.16-1.16,1.12-3-1.28.82-1,2-.89,3.16-2.26-.22-4.8-.68-6.54.79s-4.62,3.65-.46,5.92c-.92,2.17-3.92,3.25-3.45,6.35l3.35.66c-.42,3.35-5.21,3.75-5.94,7.7,5.14-1.18,10-1.09,12.57-6.06-2.35-1.52-4.61-1.48-6.87-1.46C347.09,330.45,352.31,330.89,353,326.85Zm-13.84,34.9c1.4,2.49,3,3.53,5.89.23h-6.09c1.21-3.51,6.76-2.83,7-7.27,2-.63,4.94.75,6.63-2.43a5.69,5.69,0,0,0-6.44,2.65c-4.06.5-9.64-1.81-10.1,5.65ZM157.61,152.23l.41.61-.55-.47c-.24-5.55,4.37-6.29,7.81-6.43,7.85-.32,14.8-3.19,21.17-6.09l11.35,4.56,4.12-3.84c.52,1.93.11,4.87,3.74,3.68.05-3.06-2.38-2.74-3.95-3.49-16.09-14.61-47.86-6.52-59.24,13.49,1.13,2.79,3.57,2.53,5.87,2.59l.59.63-.79-.44c-.33-2.19-.44-4.27,2.46-4.8l.45.56-.59-.42c0-1.44.1-2.87,2.09-3.8Zm119.74-91.7c2.93-2.58,6.58-2.38,10-3.1,4-.87,8.31-.76,13.42-1.15C286.24,52.24,281.65,53,277.35,60.53Zm-15.81,57.75c-2.42,1.54-4.24,2.67-3.84,5.3C262,124.68,262.25,122.3,261.54,118.29Zm66.9,265.56c2.55,4.16,4.75,1.57,8.07,0A10.07,10.07,0,0,0,328.44,383.85Zm4.74-9c2.62.48,5.84,2.25,4.76-3.07A4.87,4.87,0,0,0,333.18,374.83ZM256.41,131.18c1,1.52,2,.35,3,.09,1.56-.43,3.19-1,1.31-3C259,128.94,256.74,128.66,256.41,131.18Zm23.16-84.75a1.94,1.94,0,0,0,2.83,0c.21-.22-.3-1.68-.54-1.7A2.13,2.13,0,0,0,279.57,46.43ZM272,66.92c-.3-.11-.64-.36-.89-.29-1,.27-1.08.75-.09,1.17a1.21,1.21,0,0,0,.91-.2C272.06,67.52,272,67.15,272,66.92Zm8.4,63.45a3.38,3.38,0,0,0,.94.24c.13,0,.24-.36.36-.55a3.4,3.4,0,0,0-.94-.22C280.65,129.84,280.54,130.18,280.41,130.37Zm88,120.64-.44.56.64.12Zm4.42-2.77-.38.71.64.05Zm-7,31.54.35-.55-.56-.06ZM163,160.48l.5.35.07-.57Zm198,32.38.66.45.12-.63Z"/><path class="cls-1" d="M157.87,410.44l6,4.82c6.91-3.55-.56-7.85.75-11.57l-.12.13c1.61-1,3.16-2.15,5.83-1.78-1.36,5.41,3.88,7.91,5.19,10.36.32,6.77-5.65,4.11-7.26,7.29,3.91,6.08,9,5,14.1,3.86,1.4-4.08.72-7.36-1.94-9.93-2.22-2.14-2.41-4.61-2.21-7.33l.51-.39a16.09,16.09,0,0,1,6.88,7,9.39,9.39,0,0,0,7,4.93l-.2-.18c.87,1.3,1.75,3.05,2.58,0l-.25.2h4.88l-.17-.15.93,3c3,.62,3.9-2.77,6.29-3.12.23,2.21-.56,4.91,3.58,6.94-1.09-3.51-1.32-5.73-3.8-6.75,0-3.83,1.31-6.42,5.4-6.5,1.74,1.18,1.34,2.79,1.55,4.2l.18-.16c-1.93.85-1,1.71,0,2.57l-.13-.15c.63,2-.82,4.68,1.73,6.19,3.66.14,1.82-3.7,3.45-5,3.13.11,1.14,3.15,2.69,4.2,2.68.08,1.84-3.88,4.71-4,2.77.3,2.48,4.44,6.66,5.28h11.58c4.05-4.71,9.89-8,11.87-14.67,4.07,1.25,5.45,4.35,6.61,7.62q-.49.5-1,.95c-1.89,0-4.41-1-5.5.67-5.22,7.84-14.6,7.76-21.86,11.61-6.21,3.29-13.51,1.59-20.29.13a70.09,70.09,0,0,1-8.77-2.73c-6.21-2.22-12.05-3.89-18.6,0-3.86,2.31-9,1-14.27.93-6-4.78-14.81-7.51-15.2-17.79Zm28.73,12.4-.41.63.73,0Z"/><path class="cls-1" d="M157.29,361.48c5.91-6.95,6.39-15.43,3.29-22.93-4-9.65-3.28-19.67-4.78-29.45-1.2-7.83-.24-16-.24-24.15,3.29.78,2.09,3.45,2.13,5.21.32,14.68,1.53,29.15,6.45,43.2,1.35,3.86,1,8.42.88,12.64a51.29,51.29,0,0,0,2.25,15.91c2.06,7.33,5.14,14.33,4.77,22.39-.18,3.86,2.24,8.17,4.42,11.7a15.91,15.91,0,0,1,2.24,9.89l-.51.39-8.46-11.51-5.21,2.07-.75-.95.93.78a13.45,13.45,0,0,1-.21,7.14l.12-.13c-4.8-2.41-8.07-5.72-7-11.66l-.17.16c3.27-.34,3.64-4.93,7.17-4.9.53,1.1-.42,2.84,1.43,3.43,1-2,0-2.79-1.65-3.23-1.08-3.69,3-4.6,4-7.19-.32-2.48-1.38-4.21-4-4.64l.22.18c.47-5.14-2.81-9.93-.31-15.47L157.8,362Z"/><path class="cls-1" d="M115.79,319.82c-7.86-5.51-8.08-14.66-9.14-22.52-1.38-10.27-4.31-20.17-7.12-29.84-7-24.12-7.86-48.58-7.57-73.26.11-9.52,4.89-17.05,11.39-23.4,1.69.81,1.93,1.45,1.35,2.17-8.64,10.85-10.45,23.33-10.14,36.85.33,14.36,1.11,28.39,6.31,42,2.29,6,1.28,13,3.45,19.26,4.61,13.35,3.65,28.17,10.9,40.9,1.17,2.06.3,5.28.38,8Z"/><path class="cls-1" d="M262.27,233.81c3,2.17,2.62,5.49,2.52,8.5-.35,10.43,1.33,20.83.2,31.28A34.87,34.87,0,0,0,265.7,284c2.62,13.1-.33,25.84-3.7,38.69,0-10.4.05-20.79,0-31.19-.11-18.19,1.11-36.39-.56-54.57-.1-1,.69-2.18,1.07-3.27Z"/><path class="cls-1" d="M262.36,396.72c.21-10.16-2-20.51,2.35-30.35l.52.69-.68-.53c.4-1.43.6-3,2.18-3.7,4.28,9.94,2.51,23.08-4.55,33.74Z"/><path class="cls-1" d="M157.2,411.06c-9.13-10.35-17.18-21.34-21-34.89q.59-.53,1.22-1c7.79,11.2,16.56,21.83,20.44,35.29Z"/><path class="cls-1" d="M253,352.53c-.84-6,4.81-6,8.37-8.78.32-3.21,2.83-6.9-1.44-10l.2.23c1.69-1.92,1.51-5.09,5-6.77,2.61,6,4.24,11.9,3.3,18.88-5.84.52-10.75,3.19-15.45,6.35Z"/><path class="cls-1" d="M367,354.75c.72,13.78-6.3,24.52-13.77,35.08l-.37-.27c-.27-3.33-.1-6.55,1.75-9.54,1.19-1.91.5-3.44-1.57-4.32l.16.16c.46-3.45,4.49-2,6.23-4.82l.8-6.95-.19.19c4.68-1.63,4.19-5.87,4.81-9.54l-.19.2h2.51Z"/><path class="cls-1" d="M311,271.21c-1.17,0-2.31-.08-3.44-2.2,4.7-12.11,18.3-16.57,25.72-26.87-.08,3.65-.28,6.83-4.08,8.54a6.74,6.74,0,0,0-4.11,6.48l.18-.19c-4.4.39-7.21,2.37-7.17,7.19l.2-.2c-4.6,0-6.71,2.52-6.92,6.92Z"/><path class="cls-1" d="M313.56,322.29c.87,3.55-3.25,5.8-2.43,9.34l.18-.17-1.63,1,1.46,1.32.11.12c-1.51,3.12-3.7,5.5-8.49,7.43,2.08-5.83-.37-11.51,4.56-15.63-.31-1.9-3.09-2.41-2.67-4.74,1.06-1.43,2.61-1.22,4.12-1.15l.16.13c.61,2.62,2.83,2,4.57,2.25Z"/><path class="cls-1" d="M318.61,250.5c-1.89,3.86-5.53,5.72-9.17,8.07a32,32,0,0,0,1.9-14.31c5.26-4.14,8.14-10,13.88-12.74l-.14-.18,0,4.86.17-.17c-3.8,2.05-6.54,4.91-7.13,9.4l.17-.14c-1.18,1.12-3.06,1.56-3.47,3.73l2.93.6Z"/><path class="cls-1" d="M299.41,389.63q0,2.45,0,4.9l.16-.2c-5.51,2.78-8.29,9.52-15.19,10.41-2.06-4.22-.25-7.17,3.24-9.61,2.07-1.44,5.41-1.74,5-5.45l-.22.15,7.17,0Z"/><path class="cls-1" d="M134.58,348.08l-4.4,7.57c1.36,7.13,6.25,12.58,7.25,19.49q-.62.49-1.22,1c-6.47-7.5-8.81-16.77-11.13-26l-.19.15,9-2.72Z"/><path class="cls-1" d="M151.57,236.22c2.89,14,1.45,28.11.46,42.18A195,195,0,0,1,151.57,236.22Z"/><path class="cls-1" d="M306.51,168.66l5,2.64c-4.31,4.65-7.83,9.42-13.05,12.86-2.78-2.94,2.23-6.7-1.15-9.42a19.91,19.91,0,0,1,6.95-6.06l-.14-.16.23,4.83c-.23.6-2.37-.28-1.14,1.46l.94-1.67c2.38-.69,2.43-2.61,2.42-4.56Z"/><path class="cls-1" d="M192.58,417.78c.42-5.36-3.45-9.3-4.69-14.1l-.1.08c9.82-1.95,10.53-1.53,11.68,7l0,0c-3.71.95-4.05,4.16-4.8,7.11l.25-.2-2.58,0Z"/><path class="cls-1" d="M322.74,187.16c-2.91,9.33-11.26,14-17,21.06-2.51-2.51-1.08-4.92-1.45-7.08l-.23.19c4.49-.3,6.92-2.66,7.19-7.19l-.19.19c4.5-.28,6.94-2.62,7.18-7.17l-.18.18h4.81Z"/><path class="cls-1" d="M115.61,320c6.45,9.07,10.44,18.9,9.28,30.3l.19-.15c-4-9.83-9.2-19.28-9.29-30.31Z"/><path class="cls-1" d="M248.48,319.77l-7.33,2.13c2.72-8.34,9.72-11.72,15.49-18.47.94,5.47-1.12,8-3.8,9.39-3.11,1.66-4.73,3.71-4.6,7.17Z"/><path class="cls-1" d="M302,354.91c-.9-3.42,3.54-5.24,2.47-9.08-.51-1.84,2.5-2.32,4.35-2.73l.16.16c0,1.38-.31,2.87,1.39,3.59l7.84-3.66,0,0c0,.74.27,1.85-.11,2.16-4.91,4-9.61,8.39-16.27,9.37Z"/><path class="cls-1" d="M325.08,257.16l7.63-1.75c-4.34,7.69-9.48,12.8-16.84,15.65l0,0,2.45-7.06-.2.2c4.46-.34,7.1-2.47,7.17-7.19Z"/><path class="cls-1" d="M248.29,278.07l8-1c-4.89,6-8.15,11.19-14.44,14.14-1.77-6.52,7.78-7.35,6.54-13.26Z"/><path class="cls-1" d="M241.27,243.22c4-.72,7.33-2.21,7.17-7.15l-.19.17c2.21.68,4.09-1.89,6.75-.52-3.58,5.94-8.46,10.32-14.07,14.34-1.39-2.92,1-4.8.53-7Z"/><path class="cls-1" d="M330.37,299.47c-5,5.16-9.09,11.51-16.55,13.75l-.45-.43.24-4.65-.22.23c5.86-.66,9-4.71,11.71-9.33l.12-.13,4-.38Q329.81,299,330.37,299.47Z"/><path class="cls-1" d="M325.28,201.08a7.21,7.21,0,0,0-6.3,4c-1.7,3.39-4.69,4.38-7.85,5.34l.15.13a40,40,0,0,1,13.89-16.35l0,0-.12,7Z"/><path class="cls-1" d="M260,333.79a28.79,28.79,0,0,1-12.56,15.43c-2.62-3.35,1.63-5.57,1-8.43l-.15.15c4.28-.49,6.69-2.85,7.16-7.16l-.17.16,4.9.06Z"/><path class="cls-1" d="M255.23,243c-.3,8.32-7.09,11.14-12.81,14.86,1.83-7.06,7.78-10.55,13-14.69Z"/><path class="cls-1" d="M129.54,299.11c2.76,1.22,2.65,3.46,1.84,5.75-.94,2.65-3.08,4.78-9.06,9.64-.71-4,1.1-6.66,4-8.79,2.34-1.71,3.69-3.85,3.45-6.83Z"/><path class="cls-1" d="M153,385c-3.72.18-3.71-2.39-2.46-4.37,2.38-3.78,5.37-7.18,8.73-11.55,1.73,7.58-5.07,10.81-6.45,16.11Z"/><path class="cls-1" d="M248.42,340.8l-4.79,0,.17.17c.66-6.33,8.3-8.05,9.32-14.14l-.22.23,4.06-1c1.78,3.24-2.23,5.07-1.7,7.87l.17-.16c-4.12.65-6.6,2.94-7.16,7.16Z"/><path class="cls-1" d="M241.14,396.51c.16-4.84,5.09-5.88,7.28-9.1l-.21.17c2.15-.25,4.23-1.91,7.87.63-6.27,1.63-8.31,8-14.49,8.76Z"/><path class="cls-1" d="M255.25,266.31c1.28,6-5.41,7.38-7,11.76l.12-.11-7.65,4.53a35.37,35.37,0,0,1,14.67-16Z"/><path class="cls-1" d="M311.34,303.54l-6.45-1.93c1-4.07,7-4.78,6.44-9.69l-.2.2,7-.18.08.07c-2.53,3.81-7.1,6.38-7.09,11.72Z"/><path class="cls-1" d="M255.74,299.4,241,313.12c2.07-8.83,7.41-12.17,13.49-14.84Q255.16,298.82,255.74,299.4Z"/><path class="cls-1" d="M250.93,397c-1,5.42-5,7.73-10.09,10.38C240.71,399.65,247.6,400,250.93,397Z"/><path class="cls-1" d="M332,287.25l.25,4.79c-.18.66-2.57-.12-1.06,1.63l.85-1.83,3.19.95c-.63,3.14-2.08,5.39-4.87,6.68q-.57-.48-1.15-.94c-.32-2.35-2.39-3-4-4.11l-.1-.13c1.33-3.36,4-5.27,7.09-6.84Z"/><path class="cls-1" d="M332,231.41c0,1.9,1.07,4.32-2.16,4.77l-.1-.09a8.72,8.72,0,0,0-4.68-4.74l.14.18c.49-3.68,4.87-5.44,4.69-9.45l-.21.2c6.9.24.77,4.88,2.34,6.92l.2-.17c-.78.36-1.86.6-1.53,1.74.11.39,1,.56,1.54.84Z"/><path class="cls-1" d="M248.42,387.41l-4.65-3.16c3.72-2.76,4.91-7.53,10.57-8.2,0,5.3-6.36,6.71-6.13,11.53Z"/><path class="cls-1" d="M115.8,236c-4.8-.69-4.9,5-9.21,6.55.82-4,2.74-7.44,2.21-11.15l-.2.18c3.3.1,6.8-.11,7,4.66Z"/><path class="cls-1" d="M136.69,333.92c2.72-7.07,6.48-11.53,11.69-13.89l-.19-.18-4.61,9.37.2-.17c-3.13.48-3.63,4.91-7.18,4.78Z"/><path class="cls-1" d="M255.76,320.29c-.4,2.48-3.58,3.79-2.86,6.75l.22-.23c-3.53-.7-5.62,4.44-9.5,2.34l.15.12c.64-3.63,5.65-5.08,4.71-9.49l-.23.22,6.45-.64Z"/><path class="cls-1" d="M129.34,319.57c-.44-7,6.47-9.22,9.12-14.23.39,6.81-4.72,10.47-8.39,14.94Z"/><path class="cls-1" d="M318.17,229.14c-1.76,4.55-5.36,7.31-9.38,9.66.64-5.65,3.81-8.83,9.41-9.63Z"/><path class="cls-1" d="M122.84,271.2c.14,6-4.53,8.76-8.37,13.91-.67-8,5.3-10.1,8.09-14.18Z"/><path class="cls-1" d="M315.87,271.06c-2.58,3.57-2.9,9.68-10,9.12l5.12-9,.38-.33,4.48.14Z"/><path class="cls-1" d="M285.67,159.23c-3.28-1-2.85-3.58-1.37-5.21,1.88-2.06,4.07-4.25,7.77-4.74-.2,5-5.77,6.1-6.58,10.14Z"/><path class="cls-1" d="M324.79,221.76c.24-4,2.83-6,6.17-7.62,3.15,3.34-1.47,5.37-1.27,8.14l.21-.2-4.38.48Z"/><path class="cls-1" d="M220.72,390.27c.27,4.58-1.95,7.07-6.9,7.66C213.65,393.09,217.86,392.27,220.72,390.27Z"/><path class="cls-1" d="M130,292.33l-.49,6.77.22-.23c-2.76-.52-4.1,2.51-7.07,3.41-.89-6.15,3.5-8,6.56-10.67Z"/><path class="cls-1" d="M145.73,361.61c2.14-3.38,3-7.65,8.35-11.14-1.95,5.72-1.17,10.89-7.74,11.67Z"/><path class="cls-1" d="M248.43,215.11c-3.57,1.05-5.35,4.72-9.45,7.39,1.45-6.69,5-9.7,9.43-11.91l-.13-.13v4.79Z"/><path class="cls-1" d="M122.55,264.19c3.71.44,4.5-3.55,7.15-4.72l-.18-.2c1.18,5.88-1.68,9.5-6.68,11.92l-.28-.27.22-7Z"/><path class="cls-1" d="M371.65,161.7c4.85,3.39,4.4,9.43,7,14l.19-.13c-5.08-2.2-6.6-5.24-7-14Z"/><path class="cls-1" d="M288,410.76a12.33,12.33,0,0,1,11.6-7l-.14-.17c-2.42,4.7-5.67,8-11.57,7Z"/><path class="cls-1" d="M122.58,287.27c.56,4.51.49,8.56-6.56,8.28.48-4.51,3.57-6.34,6.75-8.1Z"/><path class="cls-1" d="M131.5,326.31c.59-3.81,3.14-6,7.55-8.66-1.61,4.61-.71,9.11-6.48,9.77A11.54,11.54,0,0,1,131.5,326.31Z"/><path class="cls-1" d="M283.31,333.91c-.52-4.33,3.2-4.55,6.08-6.17,1.36,5.83-1.62,6.73-6.16,6.1Z"/><path class="cls-1" d="M129.25,291.62c-.32-4.77,2.28-7,7.68-8.92-1.62,4.94-3.45,7.85-6.9,9.63Z"/><path class="cls-1" d="M324.94,312.7l8.52-7.39c2,2.59-2.82,4.8-1.42,7.67l.22-.15-6.83.36Z"/><path class="cls-1" d="M324.73,284.53c1-3.9,2.82-6.79,7.47-6.41l-.14-.14c.48,4.74-2.36,6.63-6.42,7.47Q325.17,285,324.73,284.53Z"/><path class="cls-1" d="M118.44,250.56l-3.88,10.09c-4.5-3-1-5.76-1-8.34l-.17.19,4.44-2.67Z"/><path class="cls-1" d="M322.89,319.79l-4.35.51-.8-.9c1.08-3.66,3.3-6.09,7.2-6.71l.48.49L322.71,320Z"/><path class="cls-1" d="M308.8,375.7c.13,3.49-4.6,3.79-4.68,7.14l.17-.18-6.75.44-.57-.65c3.61-2.89,6.69-6.73,12-6.62Z"/><path class="cls-1" d="M245.59,410.15c-2.14,4-3.37,6.21-6,7.2C239.43,413.3,239.43,413.3,245.59,410.15Z"/><path class="cls-1" d="M318.62,215.59a8.66,8.66,0,0,1-6.85,7.08q-.53-.49-1-1c.71-3.9,3.09-6.13,6.89-7Z"/><path class="cls-1" d="M262.71,417.26a8.37,8.37,0,0,1,7.12,6.93q-.58.54-1.11,1.13a8.27,8.27,0,0,1-7-7.11Q262.22,417.76,262.71,417.26Z"/><path class="cls-1" d="M311.16,361.84l-6.83.1-.23-.26c3.37-3.25,6.4-7.09,11.82-6.76l-.17-.19-4.52,7Z"/><path class="cls-1" d="M151,338.83c-.2,4.67-3.84,6.84-6.9,9.42l-1.06-1,.72-6.49-.23.23c2.9.62,4.25-2.28,6.6-2.92Z"/><path class="cls-1" d="M311.23,361.78l7,.07-.07-.07c-3.44,3.06-6.31,7.07-11.66,6.93l.16.19c.21-3.18,4.36-3.84,4.51-7.06Z"/><path class="cls-1" d="M213.72,180.5c.07,3.07.1,6.12-4.55,6.06-1-3.76.1-6,4.17-6.43Z"/><path class="cls-1" d="M143.83,334.11,143.5,341l.23-.23c-2.82-.49-4.46,2.05-6.86,2.64l-.53-.7c.71-4.31,3.56-6.93,7.11-9Z"/><path class="cls-1" d="M150.66,371.17c-.54-5.11,2.35-7.88,6.63-9.68l.51.53c-.21,4.78-3.46,7.13-7.24,9.07Z"/><path class="cls-1" d="M133.85,347.55c-.58-2.84-4.33-4.16-3.6-8.65l6.08,3.81.53.7c-.1,1.88.37,4-2.29,4.66Z"/><path class="cls-1" d="M255.43,257.15c-1.44,3.13-2.66,6.45-6.6,7.34q-.46-.43-.9-.9c.73-4.08,3.46-6,7.3-6.62Z"/><path class="cls-1" d="M117.78,249.82c1.92-2.84,2.23-6.94,8.12-8.9-2.94,4.24-1.74,9.16-7.46,9.63Z"/><path class="cls-1" d="M122.91,222.37c-.19,3.88-2.54,5.61-7.77,7.41,2.52-4.31,3.44-7.32,7.29-7.84Z"/><path class="cls-1" d="M292.67,389.68c-3.46-4.86-2.9-5.81,4.29-7.23l.57.65c-.47,3.17-4.68,3.51-5.09,6.73Z"/><path class="cls-1" d="M248.06,369l-6-.56c3.24-3,4.14-6.4,8-7.23q.61.57,1.17,1.18c-.59,2.16-2.95,3.56-2.61,6.11Z"/><path class="cls-1" d="M311.12,303.74a3.22,3.22,0,0,1,4,.83l-1.68,3.8.22-.23c-1.89.77-3.9,2.91-5.56-.66l3.3-3.93Z"/><path class="cls-1" d="M248.61,368.52l4.35.21.1.1c-2.25,3.52-3.9,7.84-9.42,6.88l.13.12,4.3-6.81Z"/><path class="cls-1" d="M292,280.14c3.48-2.43,5.23-4.53,9.06-3.56C299,279.44,297.8,282.29,292,280.14Z"/><path class="cls-1" d="M115.57,236.23c2.9.78,4.6-2.19,7.21-2.32l-.19-.16c-.45,4.42-3.92,6.75-6.65,9.59l-.53-.55.39-6.79Z"/><path class="cls-1" d="M325.64,285.45c-1.18,3.66-4.17,5.26-7.42,6.57l-.08-.07c.15-4.3,2.63-6.52,6.6-7.41Q325.17,285,325.64,285.45Z"/><path class="cls-1" d="M297.34,415.45c1.64-4.13,1.64-4.13,7.87-6.35-1.86,3.92-5.19,4.76-8.05,6.19Z"/><path class="cls-1" d="M291,160.23l-.81,6.15.14-.14c-6.22.77-3.85-4.17-4.65-7l-.18.19,4.35-.53Q290.44,159.55,291,160.23Z"/><path class="cls-1" d="M311.27,166.23l-4.6.18-.22-.2c1.75-3,2.15-7,6.29-8.45,1.45,3.48-2,5.68-1.6,8.61Z"/><path class="cls-1" d="M136.52,201.32l6.63.29c-1.41,3-2.64,5.15-5.61,6-1.7-2-.3-4.38-.83-6.52Z"/><path class="cls-1" d="M311.45,383l-.36,4.48.22-.18c-2.87-.77-6.27-.73-7-4.67l-.17.18,6.79-.35Z"/><path class="cls-1" d="M285.23,353.68l3.5-4.14C289.13,353.15,289.13,353.15,285.23,353.68Z"/><path class="cls-1" d="M146.34,362.15c.31,3.35-2.61,5.09-3.59,10.2-2.28-6.47-.28-8.85,3-10.73Z"/><path class="cls-1" d="M241.37,299c.92-3.62,3.67-5.58,6.64-7.34q.42.45.82.91c-.91,4-2.93,6.65-7.46,6.44Z"/><path class="cls-1" d="M129.25,277.65c.28-3.29.27-6.83,6.07-5.86-2.62,2-2,5.67-5.29,6.57Z"/><path class="cls-1" d="M117.93,264c.61,3.67-2.07,5.86-3.74,8.49-1.43-4.07-.15-6.86,3.88-8.34Z"/><path class="cls-1" d="M248,291.63c1-3,3.76-4.21,6.34-6.58.86,5.05-1.91,6.58-5.52,7.49Q248.44,292.08,248,291.63Z"/><path class="cls-1" d="M327.77,327.19c.52,2.76-2.26,4.23-2.58,6.66l-.06.06-4.71-.12.17.16a12.8,12.8,0,0,1,6.76-7.2Z"/><path class="cls-1" d="M378.62,175.65c4.2,3.24,2.07,7.72,2.3,11.73l.22-.2c-4.37-3.17-2.78-7.53-2.32-11.66Z"/><path class="cls-1" d="M220.67,187.16c-1.86,3.77-3.63,5.56-6.64,6.75C213.28,189.46,215.17,187.73,220.67,187.16Z"/><path class="cls-1" d="M124.3,207c1.25,4.27-.8,5.93-3,8.17C119.53,211.49,122.22,209.79,124.3,207Z"/><path class="cls-1" d="M325.11,208.14l.17-7.06-.21.21,6.47.7c-3.35,1.63-3.35,5.24-6.33,6.25Z"/><path class="cls-1" d="M317.63,214.69c1-3.85,3.07-6.56,7.48-6.55l.09.1a14.13,14.13,0,0,1-6.58,7.35Z"/><path class="cls-1" d="M120.61,204c.15-4.6,1.85-6.63,3.42-8.94C125.73,198.66,123.82,200.94,120.61,204Z"/><path class="cls-1" d="M212.72,137.8c.73-4.06,3.15-6.37,7.22-7l.85,1a19.1,19.1,0,0,1-6.71,7Z"/><path class="cls-1" d="M187.88,403.68c-1.87-3.72-1.87-3.72,3-7.1l-3.1,7.17Z"/><path class="cls-1" d="M157.66,392c-4.38-.48-3.7-4.3-4.66-7l-.18.19h4.85l-.19-.18v7.18Z"/><path class="cls-1" d="M204,410.64c-.85,2.78-.44,6.39-4.61,7l.17.15q0-3.55-.08-7.1l0,0,4.76.13Z"/><path class="cls-1" d="M289.85,158.89a22.87,22.87,0,0,1,7.09-6.84q.45.45.85.95c-.61,4-3.13,6.14-6.8,7.23Q290.44,159.55,289.85,158.89Z"/><path class="cls-1" d="M248.58,222.35a19.86,19.86,0,0,1-6.77,7.21q-.58-.59-1.1-1.23c.86-3.83,3.11-6.16,7.1-6.63Z"/><path class="cls-1" d="M118.07,264.14c1.68-2.28,1-6,4.49-7.16l.24.22-.26,7,.22-.22h-4.84Z"/><path class="cls-1" d="M113.28,201.16l-3,6.53c-1-5-1-5,3.16-6.36Z"/><path class="cls-1" d="M290.18,166.38l4.19-.58q.54.51,1,1l-3.68,6.4c-2.34-2.26-1.27-4.81-1.41-7Z"/><path class="cls-1" d="M318.28,182.66c-.26-3.45,1.28-4.93,4.78-4.32-.64,2.65-2.66,3.57-5,4.15Z"/><path class="cls-1" d="M247.81,221.7l.62-6.59-.14.14,3.14.73c.36,2.83-.24,5-2.84,6.37Z"/><path class="cls-1" d="M325.26,243.19l0-7.15-.17.17,4.7-.12.1.09c-2,2-1.32,5.86-4.77,6.84Z"/><path class="cls-1" d="M129.75,326.82c-1.79-2.32-6.89-4.45-.42-7.25l.73.71-.49,6.75Z"/><path class="cls-1" d="M327.59,271.12l3.41-6.39c2.2,5.17.54,6.62-3.58,6.22Z"/><path class="cls-1" d="M353.2,268.69l-6.09-2.77c1.62-3,4.1-1.34,6-1.81L353,264q0,2.44,0,4.87Z"/><path class="cls-1" d="M290.29,271.07c.93-3.66,4.87-2.73,7-4.57l-.2-.21c.66,5.89-3.3,5-6.88,4.7Z"/><path class="cls-1" d="M353,284.93c-.72,3.57-3.1,3.53-6.38,2.78,1.46-3.45,4.1-2.76,6.52-2.62Z"/><path class="cls-1" d="M262.19,396.57c-.24,2.62.71,5.37-1.08,8.37-1.61-3.37-1.22-5.93,1.26-8.22Z"/><path class="cls-1" d="M223.66,352.87c-.28,2.94-1.27,4.18-4.37,4C219.27,354.45,220.29,353.24,223.66,352.87Z"/><path class="cls-1" d="M255.25,357.08c.67,3.3-.62,5.12-4,5.33q-.56-.62-1.17-1.18a4.87,4.87,0,0,1,5.37-4Z"/><path class="cls-1" d="M311.29,340.94c2.29-3.33,4.56-3.13,6.82,0l.19-.18h-7.18Z"/><path class="cls-1" d="M285.37,340.65c1.06-1.91,2-4.15,4.76-1.93-.15,3-2.45,2.25-4.08,2.59Z"/><path class="cls-1" d="M325.19,333.86l3,.7c.22,2.45-1.56,3.11-3,4l-.11-.12q0-2.28,0-4.55Z"/><path class="cls-1" d="M220.35,340.83l.11,4.66-.07.06c-1.8-.66-3.44-1.62-2.73-3.82.33-1,1.7-1.2,2.84-.74Z"/><path class="cls-1" d="M299.6,403.77c1.49-2.54,3.33-3.51,6.12-1.56-2,2.28-4.15,1.59-6.25,1.4Z"/><path class="cls-1" d="M287.9,410.64c-1.59,2.54-3.41,4-6.15,1.31,1.84-2,4.08-1.37,6.25-1.19Z"/><path class="cls-1" d="M299.52,364.09c-.08,2.1.48,4.69-3.59,4.11-.11-2.6,1.92-3.2,3.67-4Z"/><path class="cls-1" d="M310.9,382.49c.13-1.51.06-3.27,2.31-3a2.13,2.13,0,0,1,1.46,1.45c0,2.2-1.8,1.91-3.22,2.11Z"/><path class="cls-1" d="M157.68,385.19c-.45-3.58.79-5.44,4.68-4.63l-.19-.18c-.8,2.32-1.89,4.33-4.68,4.63Z"/><path class="cls-1" d="M308.92,375.83c.54-2.53,2.7-3.47,4.6-4.67l-.18-.23c.94,3.93-.65,5.44-4.54,4.77Z"/><path class="cls-1" d="M150.56,371.08c-.45,1.68,1.55,4.72-2.64,4.41-1.18-2.78.41-3.77,2.74-4.32Z"/><path class="cls-1" d="M311.17,389.71c-2.35,5.46-4.58,2.29-6.83-.09l-.21.22,7.12-.06Z"/><path class="cls-1" d="M141.24,352.48c-1,1.44-1.63,3.17-3.83,3.94-1.06-4.11,1.83-3.59,4-3.78Z"/><path class="cls-1" d="M115.8,215.07l-2.44.06.15.19c-.75-2.82-1.12-5.54,1.9-7.39q.43.44.82.92l-.62,6.38Z"/><path class="cls-1" d="M115.41,207.93c.21-1.33.19-2.91,2.07-2.94.45,0,1.24.78,1.31,1.28.24,1.81-1.13,2.28-2.55,2.58Q115.84,208.37,115.41,207.93Z"/><path class="cls-1" d="M308.79,215.13c-.93,1.43-1.32,3.53-3.87,3.09-1.11-4.48,2.38-2.46,4.07-2.92Z"/><path class="cls-1" d="M137.78,218.67c1.58.24,2.77.89,2.15,2.7A2,2,0,0,1,138,222C136.25,221.14,136.72,219.88,137.78,218.67Z"/><path class="cls-1" d="M313.57,187.29c.92-2.21,2.26-4,4.71-4.63l-.18-.16v4.84l.18-.18-4.81,0Z"/><path class="cls-1" d="M136.59,196.52q0,2.4-.06,4.8l.19-.19c-1.44.35-2.69.19-3.49-1.27.47-1.81,1.4-3.13,3.47-3.23Z"/><path class="cls-1" d="M220.34,196.48c.39,2.8.41,5.25-3.71,4.13.4-2.58,1.94-3.48,3.87-4Z"/><path class="cls-1" d="M241.38,196.57c.67,3.82-.91,5.35-4.7,4.61l.07.06a8.39,8.39,0,0,1,4.63-4.68Z"/><path class="cls-1" d="M306.62,194.29a7.11,7.11,0,0,1,4.65-4.63l-.15-.16q0,2.42,0,4.84l.19-.19h-4.85Z"/><path class="cls-1" d="M115.79,196.59c.27-1.55-.62-3.66,2.49-4.29.68,2.55-.5,3.61-2.7,4.1Z"/><path class="cls-1" d="M113.51,252.31c-1.82-.54-4.92.26-3.8-3.53,2.34.24,2.63,2.32,3.63,3.72Z"/><path class="cls-1" d="M125.06,252.45c.84-1.53,1.51-3.27,3.82-3.12,1,4.29-2.19,2.69-4,3Z"/><path class="cls-1" d="M248.83,264.49l-1,3c-1.51.52-2.43-.09-2.67-1.23-.43-2.14,1.35-2.29,2.77-2.67Q248.37,264.06,248.83,264.49Z"/><path class="cls-1" d="M122.78,233.91c.21-1.63-1.13-3.86,2.22-4.64,1.35,2.74-.28,3.73-2.41,4.48Z"/><path class="cls-1" d="M241.82,229.56c-.38,1.36-.51,3.06-2.58,2.63a2.12,2.12,0,0,1-1.4-1.4c-.14-1.94,1.6-2,2.88-2.46Q241.24,229,241.82,229.56Z"/><path class="cls-1" d="M311.76,222.67c-.43,1.28-.28,3.12-2.33,3a2.15,2.15,0,0,1-1.42-1.44c-.42-2.12,1.38-2.16,2.72-2.58Q311.23,222.18,311.76,222.67Z"/><path class="cls-1" d="M115.94,243.34c-.22,1.37,0,3.12-2,3.18-.47,0-1.33-.85-1.4-1.38-.25-2.11,1.42-2.17,2.88-2.35Z"/><path class="cls-1" d="M296.72,163.43c-.1-3.14,1.39-4.73,4.56-4.68l1,.94a10.16,10.16,0,0,1-4.59,4.72Q297.18,163.93,296.72,163.43Z"/><path class="cls-1" d="M303.95,156.7c.51-1.76-.74-5.19,3.39-3.59.29,2.35-1.47,3.1-3,4Z"/><path class="cls-1" d="M296.94,152c.68-3.49,1.88-4.08,4.14-.6L297.79,153Q297.38,152.5,296.94,152Z"/><path class="cls-1" d="M254.53,298.28l1.7-3c3.54,2.1,2.93,3.35-.49,4.17Q255.16,298.82,254.53,298.28Z"/><path class="cls-1" d="M325.11,299l-4.63-.16.18.19c.41-2.6,2.53-3.62,4.48-4.78l.1.13q0,2.25,0,4.5Z"/><path class="cls-1" d="M327.57,324.48c-2.75-.38-3.8-2.45-4.69-4.69l-.18.23h4.84l-.16-.18q0,2.43,0,4.85Z"/><path class="cls-1" d="M332,315.21c.38,3.47-1,5.17-4.63,4.62l.16.18a6.41,6.41,0,0,1,4.7-4.66Z"/><path class="cls-1" d="M318.75,280.95c0,3.18-1.55,4.68-4.71,4.57l-.9-.88a10.38,10.38,0,0,1,4.63-4.7Q318.26,280.43,318.75,280.95Z"/><path class="cls-1" d="M122.77,287.45c-.3-3.42,1.43-4.79,4.67-4.67l-.19-.16c-1.11,2-2,4.25-4.67,4.65Z"/><path class="cls-1" d="M320.44,278a9.19,9.19,0,0,1,4.8-4.49l-.18-.18c.38,3.32-.77,5.22-4.43,4.86Z"/><path class="cls-1" d="M143.44,333.71l.34-4.65-.2.17,3.21,2.23c-.07,2.47-1.5,2.58-3,2.66Z"/><path class="cls-1" d="M318.22,361.85c0-1.73.72-2.51,2.59-1.86.14,2.25-1.47,1.71-2.66,1.78Z"/><path class="cls-1" d="M299.6,364.18c.54-2.57,2.53-2.52,4.5-2.5l.23.26c-.57,3-2.64,2.71-4.82,2.15Z"/><path class="cls-1" d="M306.5,368.71c-.77,2-1.8,3.21-3.91,1.33,1.12-1.46,2.59-1.31,4.07-1.14Z"/><path class="cls-1" d="M313.52,371.16c.88-1.07,1.71-2.24,3.48-1.64-.25,3-2.37,1.16-3.66,1.41Z"/><path class="cls-1" d="M141.45,352.64c-.79-2.17-1-4.18,1.56-5.38l1.06,1c-.29,1.84-.57,3.7-2.83,4.22Z"/><path class="cls-1" d="M220.58,348c-.33,1.47-.83,2.68-2.78,1.71-.55-2.16,1-2,2.34-2.09Z"/><path class="cls-1" d="M325.12,347.81c-.43,2.08-1.28,3.17-3.38,1.49.76-1.63,2.11-1.53,3.47-1.4Z"/><path class="cls-1" d="M253,352.48c-.28,2.49-2.19,2.65-4.08,2.83l-1-.86c1-2.59,2.88-2.66,5.1-1.92Z"/><path class="cls-1" d="M315.92,354.92c.21-1.88,1.08-2.67,3.05-1.79-.25,2.24-2,1.48-3.22,1.61Z"/><path class="cls-1" d="M248.92,355.31c-.25,1.27-.2,2.75-2.1,2.89-1.85-1.91-.67-2.92,1.13-3.75Z"/><path class="cls-1" d="M301.84,354.75c-.8,1.86-1.81,3-3.82,1.25,1.11-1.33,2.56-1.1,4-1.1Z"/><path class="cls-1" d="M299.44,394.52c1.44-.22,2.89-.46,4.13.78-1.89,1.91-3,.92-4-1Z"/><path class="cls-1" d="M308.12,398.06c.57-.29,1.27-.95,1.69-.8.95.34.95,1.21,0,1.51C309.38,398.91,308.69,398.32,308.12,398.06Z"/><path class="cls-1" d="M297.16,375.72c.37-2.14,1.14-3.4,3.38-1.63-.44,1.95-1.85,1.86-3.26,1.75Z"/><path class="cls-1" d="M162.36,380.56c0-2-.4-4.11,2.33-4.73l-.22-.18c.07,2-.37,3.72-2.3,4.72Z"/><path class="cls-1" d="M304.34,389.63h-4.93l.21.23c1.5-1.63,3-4.06,4.5,0Z"/><path class="cls-1" d="M318.28,173.37c-.58,3.25-2.87,2.39-4.94,2.06l.24.19c1.07-1.55,2.24-2.93,4.43-2.52Z"/><path class="cls-1" d="M311,180.1a5.09,5.09,0,0,1,2.58-4.48l-.24-.19c.4,2.09,1.19,4.33-2,5Z"/><path class="cls-1" d="M241.4,187.28c.14,1.5.24,3-1.56,3.77-1.86-2.22-.8-3.26,1.52-3.81Z"/><path class="cls-1" d="M241.67,208.45c-1,2.64-3,2.24-5.1,1.9l.21.17a4.37,4.37,0,0,1,4-2.84Z"/><path class="cls-1" d="M236.57,210.35c-.23,1.21.6,2.71-1,3.59-1.3-1.77.29-2.48,1.2-3.42Z"/><path class="cls-1" d="M309,215.29c-.86-2.35,0-3.87,2.28-4.71l-.15-.13c0,1.92.61,4.19-2.33,4.68Z"/><path class="cls-1" d="M113.36,215.13c-.88,1.1-1.62,2.46-3.49,2-.07-3.16,2.31-1.51,3.64-1.85Z"/><path class="cls-1" d="M115.61,215.23c3.64,1.52,1.82,3-.06,4.42l.21.18q0-2.38,0-4.77Z"/><path class="cls-1" d="M122.43,221.94l1.07-3.4c2.39,2.07,1.41,3.05-.59,3.83Z"/><path class="cls-1" d="M115.56,219.65c-.44,1.11.32,2.63-1.14,3.45-1.11-1.78.54-2.34,1.35-3.27Z"/><path class="cls-1" d="M304.35,199c.24-1.82-.81-4.27,2.27-4.73l-.17-.14c.71,2.3-.57,3.61-2.33,4.69Z"/><path class="cls-1" d="M113.48,201.33c-.54-2.22.5-3.67,2.31-4.74l-.22-.19c-.34,1.79.78,4.28-2.29,4.76Z"/><path class="cls-1" d="M236.68,201.18a2.16,2.16,0,0,1-.63,2.91c-2.37-1.58-1.4-2.34.7-2.86Z"/><path class="cls-1" d="M248.32,201.17c-.47,3.14-2.66,2.6-4.76,2.24l.2.16c.91-2.07,2.56-2.64,4.66-2.28Z"/><path class="cls-1" d="M243.56,203.4c.49,2.1.74,4.11-1.89,5l-.9-.77c.33-1.85,1.09-3.4,3-4.12Z"/><path class="cls-1" d="M143.7,313c.08,1.42.18,2.84-1.73,3.35-1.79-2.21-.56-3.05,1.58-3.5Z"/><path class="cls-1" d="M150.1,338.09c.31-1.29.29-2.75,1.8-3.49,1.74,1.86.34,3-.93,4.24Z"/><path class="cls-1" d="M318.11,341l4.73-.1h0c-1,1.85-2.25,3.22-4.63,2.36l0,0,.13-2.4Z"/><path class="cls-1" d="M254.71,319.36l1.51-2.74c2.33,1.78,1.2,2.77-.45,3.67Z"/><path class="cls-1" d="M308.77,319.83c-.58-2.27.62-3.58,2.46-4.54l-.06-.06c0,1.93.71,4.2-2.25,4.73Z"/><path class="cls-1" d="M313.5,322.21c.47-2.36,2.49-2.37,4.24-2.8l.8.9c-1,2.43-2.86,2.47-5,2Z"/><path class="cls-1" d="M318.25,327c.36-1.77,1.22-2.62,3.14-1.62-.38,2.09-2,1.33-3.26,1.5Z"/><path class="cls-1" d="M327.35,326.75a4.57,4.57,0,0,0,.22-2.27l-.2.2c1.35-.06,2.77-.4,3.83.84-.7,1.46-2.16,1.38-3.44,1.67Z"/><path class="cls-1" d="M129.49,331.41l.26-4.59-.18.21a2.68,2.68,0,0,1,1.92-.72,11.54,11.54,0,0,0,1.07,1.11c-.17,1.91-.58,3.67-2.73,4.33Z"/><path class="cls-1" d="M243.63,329.15l-.58,3.38c-1.72-1.76-.25-2.44.73-3.26Z"/><path class="cls-1" d="M241.48,240.86c0-1.44-.33-3,1.21-4.11,2.06,2.23.3,3.08-1.4,3.94Z"/><path class="cls-1" d="M318.1,245.44c1.93,1.51,4.46,3,.51,5.06l-.88-.87.54-4.33Z"/><path class="cls-1" d="M124.86,252.29c.63,2.18,1,4.27-2.06,4.89l-.24-.22c-.06-2,.28-3.78,2.5-4.52Z"/><path class="cls-1" d="M255.23,257a3,3,0,0,1,1.07-3c.29.09.74.09.85.28,1.13,1.94,0,2.6-1.71,2.94Z"/><path class="cls-1" d="M350.69,257c-1.32,3.2-3,3.87-5.33.83l1.28-1.22,4.19.6Z"/><path class="cls-1" d="M236.62,224l-1.15,1.27a12.08,12.08,0,0,1-.72-1.84c0-.14.71-.64.79-.58A8.88,8.88,0,0,1,236.62,224Z"/><path class="cls-1" d="M325.52,222.56c-1,2.85-3.1,2.26-5.2,1.74l.23.18a5.1,5.1,0,0,1,4.25-2.72Z"/><path class="cls-1" d="M108.57,229c0-1.39-.11-2.84,1.72-3.42,1.74,2,.8,3.1-1.35,3.75Z"/><path class="cls-1" d="M320.32,224.3c.22,2,1,4.33-2.15,4.84l0,0c-.27-2.09.77-3.52,2.35-4.69Z"/><path class="cls-1" d="M248.44,236.07c-4.51-1.51-1.61-3,0-4.56l-.18-.15q0,2.44,0,4.88Z"/><path class="cls-1" d="M127.44,282.77c-.73-2.18-.88-4.15,1.81-5.12l.78.71c-.32,1.82-.24,3.89-2.78,4.26Z"/><path class="cls-1" d="M350.72,277.93c-.74,2.27-2.13,2.45-4.47,1.89,1.63-2.07,3.17-1.74,4.65-1.67Z"/><path class="cls-1" d="M243.64,340.77q-.1,1.5-1.1,1.23-.23-1.11,1.27-1.05Z"/><path class="cls-1" d="M255.42,266.49l.86-1.75c1.52,1.75-.37,1.27-1,1.58Z"/><path class="cls-1" d="M297.28,266.5l.66-.75-.86.54Z"/><path class="cls-1" d="M129.7,259.47l1-1.66c1.15,1.77-.29,1.4-1.21,1.46Z"/><path class="cls-1" d="M286,341.31c-.33.93-.89,2.23-1.88,1.28s.18-1.64,1.2-1.93Z"/><path class="cls-1" d="M332.2,278.12l.44-.82-.59.68Z"/><path class="cls-1" d="M346.22,271l-1.62-.84c1.63-1.3,1,.62,1.44,1Z"/><polygon class="cls-1" points="242.7 269.39 242.95 270.09 242.26 270 242.7 269.39"/><path class="cls-1" d="M290.21,271l-.88,1.84c-1.82-1.76.29-1.37,1-1.76Z"/><path class="cls-1" d="M325.24,273.46a2.08,2.08,0,0,1,2.35-2.34l-.17-.17c.06,1.63-.75,2.38-2.35,2.33Z"/><polygon class="cls-1" points="128 237.3 128.66 237.04 128.59 237.69 128 237.3"/><path class="cls-1" d="M332,229.19c1.5.75,2.29,1.49,0,2.22l.22.19q0-1.29,0-2.58Z"/><path class="cls-1" d="M108.95,229.36a4.54,4.54,0,0,1-.36,2.22l.2-.18c-.53-.19-1.4-.25-1.54-.6-.44-1.09.47-1.48,1.32-1.77Z"/><path class="cls-1" d="M308.78,343.1c-.06-1.76,1-2.18,2.5-2.17l-.17-.16c.05,1.51-.47,2.51-2.17,2.49Z"/><path class="cls-1" d="M255.39,243.21l.65-.71-.81.54Z"/><path class="cls-1" d="M241.46,243l-1.84-1.14,1.85-1.05-.19-.17q0,1.26,0,2.53Z"/><path class="cls-1" d="M325.09,243c-.11,1-.06,2.05-1.6,1.62-.28-1.56.87-1.36,1.77-1.45Z"/><path class="cls-1" d="M311.22,315.29a2.08,2.08,0,0,1,2.15-2.5l.45.43c-.18,1.6-1,2.35-2.65,2Z"/><path class="cls-1" d="M332,313a7.87,7.87,0,0,1,.74,1.54c0,.16-.48.46-.75.7l.23.14q0-1.26,0-2.52Z"/><path class="cls-1" d="M283.24,333.84l-.38.46.45-.39Z"/><path class="cls-1" d="M148.38,320c-.06-.91-.08-1.8,1.23-1.79.51,1.51-.53,1.49-1.42,1.61Z"/><path class="cls-1" d="M320.42,333.79c.1,1.06,0,1.93-1.44,1.77-.45-1.61.72-1.46,1.61-1.6Z"/><path class="cls-1" d="M143.55,312.85l1.1-1.85c1.67,1.61-.08,1.59-.95,2Z"/><path class="cls-1" d="M318.12,326.83c-.1.95,0,2.07-1.57,1.69-.37-1.56.77-1.45,1.7-1.56Z"/><path class="cls-1" d="M150.07,328.22l-.83.75c-.25-.28-.77-.68-.7-.81C149,327.09,149.61,327.13,150.07,328.22Z"/><path class="cls-1" d="M311.13,331.62c.6.18,1.61.23,1.72.58.43,1.29-.61,1.55-1.6,1.72l-.11-.12.17-2.35Z"/><path class="cls-1" d="M129.84,331.75l-1.2,1.56c-1.58-1.47-.06-1.55.85-1.9Z"/><path class="cls-1" d="M136.6,333.84c-.18.83-.05,2-1.51,1.63-.36-1.45.74-1.37,1.59-1.55Z"/><path class="cls-1" d="M332.22,287.44l.85-1.62c1.28,1.66-.5,1.09-1,1.42Z"/><path class="cls-1" d="M325.21,338.59c0,1.63-.84,2.3-2.38,2.28h0c-.3-1.78.46-2.58,2.25-2.41Z"/><path class="cls-1" d="M220.51,341c.12-.33.25-.94.37-.94.68,0,.51.33-.53.79Z"/><path class="cls-1" d="M314,285.51c-.4.94-1.06,2.18-2.05,1.22s.15-1.71,1.15-2.1Z"/><path class="cls-1" d="M311.34,291.92l-.84-.68.64.88Z"/><path class="cls-1" d="M320.63,278.14c.29,1.55-.54,2.35-1.88,2.81q-.48-.52-1-1a2.32,2.32,0,0,1,2.67-2Z"/><path class="cls-1" d="M241.38,299l-1.06,1.88c-1.71-1.78.2-1.54,1.05-1.88Z"/><path class="cls-1" d="M320.47,298.88l-.64.69.82-.51Z"/><path class="cls-1" d="M138.56,293.27l-.78.67c-.22-.26-.63-.54-.61-.79s.47-.45.73-.68Z"/><polygon class="cls-1" points="135.52 297.08 135.84 297.94 135.08 297.89 135.52 297.08"/><path class="cls-1" d="M304.33,201.14,302.49,200l1.85-1-.23-.18v2.49Z"/><path class="cls-1" d="M136.7,196.63l.8-1.62c1.51,1.6-.28,1.21-.92,1.51Z"/><path class="cls-1" d="M220.5,196.64l1-1.76c1.38,1.78-.15,1.5-1.13,1.6Z"/><path class="cls-1" d="M241.38,196.56l1-1.73.92,1.18-1.9.56Z"/><path class="cls-1" d="M248.41,210.59l1.07-1.8c1.39,1.85-.1,1.61-1.2,1.66Z"/><path class="cls-1" d="M294.37,165.8a2.73,2.73,0,0,1,2.35-2.37q.47.5,1,1a2.73,2.73,0,0,1-2.26,2.44Q294.91,166.3,294.37,165.8Z"/><path class="cls-1" d="M317.64,165.13c-.24.21-.49.59-.71.58s-.43-.42-.64-.66c.24-.21.49-.6.71-.58S317.43,164.89,317.64,165.13Z"/><path class="cls-1" d="M318,173.1l1-1.44c1.51,1.36-.25,1.25-.76,1.71Z"/><path class="cls-1" d="M304.27,168.69c0-1.48.58-2.42,2.17-2.48l.22.2-.16,2.26.07-.07-2.45-.06Z"/><path class="cls-1" d="M311.13,166.37c1,.07,1.95.12,1.8,1.53-1.64.39-1.53-.75-1.65-1.67Z"/><path class="cls-1" d="M301.28,158.75a2.45,2.45,0,0,1,2.67-2l.42.45a2.39,2.39,0,0,1-2.11,2.54Z"/><path class="cls-1" d="M304.67,187.71c-.53.89-1,2-2.12.58,0,0,.94-.83,1.45-1.27Z"/><path class="cls-1" d="M311.26,189.65c0-1.57.63-2.46,2.3-2.37l-.09-.09c.15,1.73-.68,2.45-2.36,2.3Z"/><path class="cls-1" d="M304,187c.31-1,.87-2.44,2-1.43s-.26,1.73-1.29,2.11Z"/><path class="cls-1" d="M322.91,187.34l.91-1.77c1.29,1.66,0,1.56-1.09,1.58Z"/><path class="cls-1" d="M325.16,194.23l1-1.58c1.27,1.51-.2,1.34-1,1.59Z"/><path class="cls-1" d="M311.38,180.46c-.29.87-.41,2-1.81,1.5-.51-1.39.54-1.57,1.44-1.86Z"/><path class="cls-1" d="M213.34,180.14l1.73-1.41-1.35,1.77Z"/><path class="cls-1" d="M241.59,397c-.33.82-.53,1.82-1.83,1.34-.47-1.31.59-1.45,1.37-1.8Z"/><path class="cls-1" d="M243.63,375.71l-.52,1.86-1.1-.87,1.75-.86Z"/><path class="cls-1" d="M297.29,375.84l-1,1.61c-1.42-1.48.18-1.38.91-1.73Z"/><path class="cls-1" d="M311.09,387.52c.55.21,1.47.3,1.57.64.37,1.18-.61,1.39-1.5,1.55l.07.07.07-2.45Z"/><path class="cls-1" d="M213.36,415.39c2.17.72,2,1.48,0,2.26l.13.15q0-1.29,0-2.57Z"/><path class="cls-1" d="M204.22,410.84l.58-.84-.79.64Z"/><path class="cls-1" d="M255.42,357.25l1-1.85c1.6,1.89-.23,1.46-1.13,1.67Z"/><path class="cls-1" d="M220.14,347.6a3.68,3.68,0,0,1,.26-2.05l.07-.06c.54.22,1.43.32,1.56.69.4,1.14-.54,1.52-1.44,1.8Z"/><path class="cls-1" d="M325.21,347.9c.1-.88.19-1.77,1.47-1.58.31,1.46-.76,1.33-1.56,1.49Z"/><path class="cls-1" d="M253,368.73l.69-1.73,1,.9-1.64.93Z"/><path class="cls-1" d="M241.94,114.83c4.61,8.57.28,16.25-1.74,24.15C237.71,130.62,243.36,123.08,241.94,114.83Z"/><path class="cls-1" d="M248.31,84.86v15.95c-2.88-9.09-2.88-9.09.21-15.78Z"/><path class="cls-1" d="M248.53,85l-.07-9.6-.18.16c5.08,3.07,2.73,6.17,0,9.27Z"/><path class="cls-1" d="M262.23,59.38l0-4.9,7.24,0C268.25,57.91,264.35,57.33,262.23,59.38Z"/><path class="cls-1" d="M234.49,145.46l.64-3.17c2.61,2.27.88,2.63-.83,3Z"/><path class="cls-1" d="M259.89,61.68a2.47,2.47,0,0,1,2.53-2.53A2.48,2.48,0,0,1,259.89,61.68Z"/><path class="cls-1" d="M367,180.43v-7.27C372.35,175.57,369.45,178,367,180.43Z"/><path class="cls-1" d="M353,368.93V364C356.25,365.65,357.19,367.29,353,368.93Z"/><path class="cls-1" d="M353,375.69c-.09,1,0,2.08-1.59,1.68-.34-1.58.82-1.42,1.75-1.52Z"/><path class="cls-1" d="M360.21,364.09l-.95-.47.76.67Z"/><path class="cls-1" d="M325.27,143.12c-.35-4,1.13-5.7,5.89-4-1.48,2.47-4.1,2.69-6.06,3.8Z"/><path class="cls-1" d="M334.59,145.27c-.51,2.72-3.1,3.38-4.84,4.88Q329.15,144.72,334.59,145.27Z"/><path class="cls-1" d="M325.09,142.94a2.16,2.16,0,0,1-2.27,2.4l0,0c-.1-1.7.72-2.44,2.4-2.26Z"/><path class="cls-1" d="M360.05,243c-1.48,2.94-3.61,2.61-6.45,1.62,2.32-2,4.55-1.24,6.62-1.42Z"/><path class="cls-1" d="M360.17,215.08c-1.24,6.66-1.69,7-9.53,7.17C352.71,218.39,355.18,215.07,360.17,215.08Z"/><path class="cls-1" d="M348.45,215.27c1.07-1.42,2.21-2.53,5.64-.81l-5.83.6Z"/><path class="cls-1" d="M353.56,187.75c-.93,1.76-2,3-4,1.19.3-1.86,1.83-1.81,3.11-2.15Z"/><path class="cls-1" d="M332,154.75c.55-3,2.89-2.44,4.93-2.51C336.14,154.73,334.39,155.34,332,154.75Z"/><path class="cls-1" d="M371.81,322.14V327l-4.86,0C366.53,323.35,369,322.6,371.81,322.14Z"/><path class="cls-1" d="M362.3,336.3q0-1.26,0-2.52h4.9C366.53,336.52,364.3,336.18,362.3,336.3Z"/><path class="cls-1" d="M353.21,324.48V327l-7.2,0C347.28,322.91,350.42,324.22,353.21,324.48Z"/><rect class="cls-2" y="266.56" width="566" height="165.82"/><rect class="cls-2" y="266.56" width="566" height="165.82"/></g></g></svg>